<svg width="36" height="36" viewBox="0 0 36 36" fill="none" xmlns="http://www.w3.org/2000/svg">
<g clip-path="url(#clip0_186_12)">
<path d="M27.5625 0H8.4375C3.7776 0 0 3.7776 0 8.4375V27.5625C0 32.2224 3.7776 36 8.4375 36H27.5625C32.2224 36 36 32.2224 36 27.5625V8.4375C36 3.7776 32.2224 0 27.5625 0Z" fill="#0277BD"/>
<path d="M7.55902 14.4353L7.96148 18.9271H18.0135V14.4353H7.55902ZM18.0134 5.34375H6.75L7.15837 9.83559H18.0134V5.34375ZM18.0134 30.7745V26.1011L17.9937 26.1063L12.9911 24.7556L12.6713 21.1731H8.16216L8.79145 28.226L17.9927 30.7803L18.0134 30.7745Z" fill="#EBEBEB"/>
<path d="M23.5291 18.9271L23.0076 24.7527L17.9979 26.1049V30.778L27.2064 28.226L27.2739 27.467L28.3294 15.6416L28.439 14.4353L29.25 5.34375H17.9979V9.83559H24.3273L23.9186 14.4353H17.9979V18.9271H23.5291Z" fill="white"/>
</g>
<defs>
<clipPath id="clip0_186_12">
<rect width="36" height="36" fill="white"/>
</clipPath>
</defs>
</svg>
