<svg width="44" height="44" viewBox="0 0 44 44" fill="none" xmlns="http://www.w3.org/2000/svg">
<path d="M21.9998 3.73999C11.9165 3.73999 3.6665 11.9717 3.6665 22.11C3.6665 31.2767 10.3765 38.885 19.1398 40.26V27.4267H14.4832V22.11H19.1398V18.0583C19.1398 13.4567 21.8715 10.9267 26.0698 10.9267C28.0682 10.9267 30.1582 11.275 30.1582 11.275V15.8033H27.8482C25.5748 15.8033 24.8598 17.215 24.8598 18.6633V22.11H29.9565L29.1315 27.4267H24.8598V40.26C29.18 39.5777 33.1139 37.3734 35.9514 34.0451C38.7889 30.7168 40.343 26.4837 40.3332 22.11C40.3332 11.9717 32.0832 3.73999 21.9998 3.73999Z" fill="white"/>
</svg>
