<svg width="42" height="42" viewBox="0 0 52 52" fill="none" xmlns="http://www.w3.org/2000/svg">
<g clip-path="url(#clip0_20_541)">
<path d="M39.8125 0H12.1875C5.45653 0 0 5.45653 0 12.1875V39.8125C0 46.5435 5.45653 52 12.1875 52H39.8125C46.5435 52 52 46.5435 52 39.8125V12.1875C52 5.45653 46.5435 0 39.8125 0Z" fill="#242938"/>
<mask id="mask0_20_541" style="mask-type:luminance" maskUnits="userSpaceOnUse" x="12" y="5" width="28" height="42">
<path d="M12.3906 5.6875H39.4794V46.3125H12.3906V5.6875Z" fill="white"/>
</mask>
<g mask="url(#mask0_20_541)">
<path d="M19.164 46.3125C22.9015 46.3125 25.9348 43.2792 25.9348 39.5417V32.7708H19.164C15.4265 32.7708 12.3931 35.8042 12.3931 39.5417C12.3931 43.2792 15.4265 46.3125 19.164 46.3125Z" fill="#0ACF83"/>
<path d="M12.3931 26C12.3931 22.2625 15.4265 19.2292 19.164 19.2292H25.9348V32.7708H19.164C15.4265 32.7708 12.3931 29.7375 12.3931 26Z" fill="#A259FF"/>
<path d="M12.3931 12.4583C12.3931 8.72077 15.4265 5.6875 19.164 5.6875H25.9348V19.2292H19.164C15.4265 19.2292 12.3931 16.1958 12.3931 12.4583Z" fill="#F24E1E"/>
<path d="M25.9346 5.6875H32.7053C36.4428 5.6875 39.4763 8.72077 39.4763 12.4583C39.4763 16.1958 36.4428 19.2292 32.7053 19.2292H25.9346V5.6875Z" fill="#FF7262"/>
<path d="M39.4763 26C39.4763 29.7375 36.4428 32.7708 32.7053 32.7708C28.9678 32.7708 25.9346 29.7375 25.9346 26C25.9346 22.2625 28.9678 19.2292 32.7053 19.2292C36.4428 19.2292 39.4763 22.2625 39.4763 26Z" fill="#1ABCFE"/>
</g>
</g>
<defs>
<clipPath id="clip0_20_541">
<rect width="52" height="52" fill="white"/>
</clipPath>
</defs>
</svg>
