<svg width="36" height="36" viewBox="0 0 36 36" fill="none" xmlns="http://www.w3.org/2000/svg">
<g clip-path="url(#clip0_186_43)">
<path d="M27.5625 0H8.4375C3.7776 0 0 3.7776 0 8.4375V27.5625C0 32.2224 3.7776 36 8.4375 36H27.5625C32.2224 36 36 32.2224 36 27.5625V8.4375C36 3.7776 32.2224 0 27.5625 0Z" fill="#242938"/>
<mask id="mask0_186_43" style="mask-type:luminance" maskUnits="userSpaceOnUse" x="8" y="3" width="20" height="30">
<path d="M8.57812 3.9375H27.3319V32.0625H8.57812V3.9375Z" fill="white"/>
</mask>
<g mask="url(#mask0_186_43)">
<path d="M13.2675 32.0625C15.855 32.0625 17.955 29.9626 17.955 27.3751V22.6875H13.2675C10.68 22.6875 8.57996 24.7876 8.57996 27.3751C8.57996 29.9626 10.68 32.0625 13.2675 32.0625Z" fill="#0ACF83"/>
<path d="M8.57996 18C8.57996 15.4125 10.68 13.3125 13.2675 13.3125H17.955V22.6874H13.2675C10.68 22.6874 8.57996 20.5875 8.57996 18Z" fill="#A259FF"/>
<path d="M8.57996 8.62495C8.57996 6.03745 10.68 3.9375 13.2675 3.9375H17.955V13.3125H13.2675C10.68 13.3125 8.57996 11.2125 8.57996 8.62495Z" fill="#F24E1E"/>
<path d="M17.955 3.9375H22.6425C25.23 3.9375 27.3301 6.03745 27.3301 8.62495C27.3301 11.2125 25.23 13.3125 22.6425 13.3125H17.955V3.9375Z" fill="#FF7262"/>
<path d="M27.3301 18C27.3301 20.5875 25.23 22.6874 22.6425 22.6874C20.055 22.6874 17.955 20.5875 17.955 18C17.955 15.4125 20.055 13.3125 22.6425 13.3125C25.23 13.3125 27.3301 15.4125 27.3301 18Z" fill="#1ABCFE"/>
</g>
</g>
<defs>
<clipPath id="clip0_186_43">
<rect width="36" height="36" fill="white"/>
</clipPath>
</defs>
</svg>
