<svg width="44" height="44" viewBox="0 0 44 44" fill="none" xmlns="http://www.w3.org/2000/svg">
<path d="M21.9998 3.66663C19.5923 3.66663 17.2083 4.14083 14.984 5.06217C12.7597 5.9835 10.7386 7.33393 9.03621 9.03633C5.59805 12.4745 3.6665 17.1377 3.6665 22C3.6665 30.1033 8.92817 36.9783 16.2065 39.4166C17.1232 39.5633 17.4165 38.995 17.4165 38.5V35.4016C12.3382 36.5016 11.2565 32.945 11.2565 32.945C10.4132 30.8183 9.2215 30.25 9.2215 30.25C7.55317 29.1133 9.34984 29.15 9.34984 29.15C11.1832 29.2783 12.1548 31.0383 12.1548 31.0383C13.7498 33.825 16.4448 33 17.4898 32.56C17.6548 31.3683 18.1315 30.5616 18.6448 30.1033C14.5748 29.645 10.3032 28.0683 10.3032 21.0833C10.3032 19.0483 10.9998 17.4166 12.1915 16.115C12.0082 15.6566 11.3665 13.75 12.3748 11.275C12.3748 11.275 13.9148 10.78 17.4165 13.145C18.8648 12.7416 20.4415 12.54 21.9998 12.54C23.5582 12.54 25.1348 12.7416 26.5832 13.145C30.0848 10.78 31.6248 11.275 31.6248 11.275C32.6332 13.75 31.9915 15.6566 31.8082 16.115C32.9998 17.4166 33.6965 19.0483 33.6965 21.0833C33.6965 28.0866 29.4065 29.6266 25.3182 30.085C25.9782 30.6533 26.5832 31.7716 26.5832 33.4766V38.5C26.5832 38.995 26.8765 39.5816 27.8115 39.4166C35.0898 36.96 40.3332 30.1033 40.3332 22C40.3332 19.5924 39.859 17.2084 38.9376 14.9841C38.0163 12.7598 36.6659 10.7387 34.9635 9.03633C33.2611 7.33393 31.24 5.9835 29.0157 5.06217C26.7914 4.14083 24.4074 3.66663 21.9998 3.66663Z" fill="white"/>
</svg>
