<svg width="44" height="44" viewBox="0 0 44 44" fill="none" xmlns="http://www.w3.org/2000/svg">
<path d="M36.6665 33H32.9998V16.9584L21.9998 23.8334L10.9998 16.9584V33H7.33317V11H9.53317L21.9998 18.7917L34.4665 11H36.6665M36.6665 7.33337H7.33317C5.29817 7.33337 3.6665 8.96504 3.6665 11V33C3.6665 33.9725 4.05281 34.9051 4.74045 35.5928C5.42808 36.2804 6.36071 36.6667 7.33317 36.6667H36.6665C37.639 36.6667 38.5716 36.2804 39.2592 35.5928C39.9469 34.9051 40.3332 33.9725 40.3332 33V11C40.3332 10.0276 39.9469 9.09495 39.2592 8.40732C38.5716 7.71968 37.639 7.33337 36.6665 7.33337Z" fill="white"/>
</svg>
