<svg width="36" height="36" viewBox="0 0 46 46" fill="none" xmlns="http://www.w3.org/2000/svg">
<path d="M29.6023 10.4247C31.3503 14.2787 33.4965 19.0095 35.1065 20.8897C35.4213 20.158 35.3868 18.9347 35.7462 15.9476C36.0711 13.2494 38.2963 12.9935 39.2508 13.1847C41.3611 13.6246 42.0051 15.765 41.9347 16.5542C41.8225 17.812 41.8168 17.7689 41.5868 20.8092C41.249 25.2569 42.9668 28.6149 43.1249 32.4228C43.1249 39.5988 36.8358 43.125 32.4342 43.125C28.9123 43.125 25.389 40.871 24.068 39.744L17.4626 33.7137C16.6548 33.0855 14.6566 31.0112 13.7798 29.818C11.3892 26.565 14.8464 24.3254 16.7899 24.8874C16.6361 24.7695 15.7146 23.2731 15.2733 22.54C14.0874 20.158 15.2733 18.5725 16.1502 18.1369C18.1368 17.1494 19.5973 18.2605 20.0573 18.8672C19.882 18.5682 19.33 17.3578 18.4401 15.1383C17.5503 12.9188 18.9835 11.5489 19.8101 11.1406C21.607 10.3097 23.3147 11.3649 23.7416 12.3093C23.9501 12.7693 25.0785 15.2389 25.5673 16.3285C25.1978 15.4258 24.528 13.6318 24.2908 12.8024C23.8193 10.8474 24.9535 9.50905 25.6722 9.16405C26.6727 8.68536 28.7571 8.5603 29.5822 10.3773L29.6023 10.4247Z" fill="#FFD7C2"/>
<path d="M25.5616 9.94029C25.714 9.45154 25.9224 9.15541 26.0805 9.00879C25.9301 9.05287 25.794 9.10462 25.6723 9.16404C24.9535 9.50904 23.8194 10.8488 24.2923 12.8024C24.528 13.6318 25.1979 15.4258 25.5688 16.3285L25.3905 15.9347C26.2013 17.7962 27.2119 19.8015 27.9737 21.0953C28.0704 21.2596 28.2283 21.3788 28.4129 21.4267C28.5974 21.4745 28.7934 21.4471 28.9577 21.3504C29.122 21.2538 29.2412 21.0958 29.2891 20.9113C29.3369 20.7268 29.3095 20.5308 29.2129 20.3665C27.9766 18.2663 26.0964 14.2787 25.5573 12.2992C25.3397 11.5282 25.3412 10.7105 25.5616 9.94029ZM15.2734 22.54C15.6069 23.0949 16.215 24.0853 16.5585 24.5855C17.0128 25.1318 17.5102 25.6565 18.0133 26.1553C18.5883 26.7231 19.1849 27.2722 19.7498 27.7926L19.7972 27.8357C20.3809 28.3734 20.9257 28.8779 21.3986 29.3566C21.465 29.4238 21.5439 29.4773 21.6309 29.514C21.7179 29.5507 21.8113 29.5699 21.9058 29.5705C22.0002 29.5711 22.0939 29.5531 22.1813 29.5175C22.2688 29.4819 22.3484 29.4294 22.4156 29.3631C22.4828 29.2967 22.5363 29.2178 22.573 29.1308C22.6097 29.0437 22.6289 28.9503 22.6295 28.8559C22.6301 28.7615 22.6121 28.6678 22.5765 28.5803C22.5409 28.4929 22.4885 28.4132 22.4221 28.346C21.9204 27.8386 21.3497 27.311 20.7704 26.7792L20.7302 26.7418C20.1609 26.2171 19.5802 25.6824 19.0253 25.1318C17.8782 23.9962 16.8978 22.8548 16.3774 21.7034C16.008 20.8897 15.9174 19.9367 16.018 19.1489C16.0533 18.8244 16.1387 18.5072 16.271 18.2088C16.2996 18.1491 16.3323 18.0915 16.3688 18.0363C16.2969 18.067 16.2236 18.1005 16.1489 18.1369C15.2734 18.5725 14.0875 20.158 15.2734 22.54ZM19.9568 11.0774C19.803 11.1809 19.5931 11.431 19.4594 11.9169C19.3085 12.4645 19.2869 13.235 19.5385 14.1637C19.9036 15.5092 20.8207 17.3147 21.8687 19.0828C22.7761 20.6047 23.7517 22.0849 24.7925 23.5189C24.8511 23.5949 24.8939 23.6818 24.9183 23.7746C24.9428 23.8673 24.9484 23.9641 24.9349 24.059C24.9214 24.154 24.889 24.2453 24.8397 24.3276C24.7903 24.4098 24.725 24.4814 24.6475 24.538C24.5701 24.5946 24.4821 24.6352 24.3887 24.6572C24.2954 24.6793 24.1986 24.6825 24.104 24.6665C24.0094 24.6506 23.9189 24.6159 23.8379 24.5645C23.757 24.513 23.6871 24.4459 23.6325 24.367C22.5645 22.8959 21.5634 21.3773 20.6324 19.8159C20.343 19.331 20.0641 18.8403 19.7958 18.3439C19.3176 17.2867 18.8656 16.2178 18.4402 15.1383C17.5504 12.9202 18.9836 11.5489 19.8102 11.142C19.859 11.1181 19.9079 11.0965 19.9568 11.0774ZM35.4717 18.607C35.3668 19.7484 35.3064 20.401 35.1195 20.8581L35.0865 21.2505C35.0693 21.4404 35.1283 21.6293 35.2504 21.7757C35.3725 21.9221 35.5478 22.0139 35.7377 22.0311C35.9275 22.0483 36.1164 21.9893 36.2628 21.8672C36.4092 21.745 36.5011 21.5698 36.5182 21.3799C36.5393 21.1451 36.5609 20.8734 36.5829 20.5649C36.6677 19.4249 36.787 17.7991 37.1392 15.755C37.2859 14.9069 37.6668 14.1709 38.1024 13.6907C38.4402 13.3213 38.7305 13.179 38.9304 13.143C37.8709 13.0683 36.0381 13.5182 35.7463 15.9462C35.6413 16.8312 35.5497 17.7177 35.4717 18.6055" fill="#F1B99B"/>
<path d="M34.5545 10.8632C34.5552 10.9576 34.5744 11.0509 34.6112 11.1378C34.6479 11.2248 34.7014 11.3037 34.7686 11.3699C34.8358 11.4362 34.9154 11.4886 35.0029 11.5241C35.0903 11.5596 35.1839 11.5775 35.2783 11.5769C35.3727 11.5762 35.466 11.557 35.553 11.5203C35.6399 11.4835 35.7188 11.43 35.7851 11.3628C35.8513 11.2956 35.9037 11.216 35.9392 11.1285C35.9748 11.0411 35.9927 10.9475 35.992 10.8531C35.9705 7.55404 33.462 2.96411 28.0714 2.99861C27.8808 2.99994 27.6985 3.07695 27.5646 3.21268C27.4308 3.34842 27.3563 3.53176 27.3577 3.72239C27.359 3.91301 27.436 4.0953 27.5718 4.22915C27.7075 4.363 27.8908 4.43744 28.0815 4.43611C32.44 4.40736 34.5358 8.09886 34.5545 10.8632Z" fill="#5092FF"/>
<path d="M32.8857 14.3549C32.6953 14.356 32.5123 14.2816 32.3767 14.1479C32.2411 14.0142 32.1641 13.8322 32.1626 13.6419C32.154 12.3337 31.6149 10.5944 30.4707 9.19279C29.3437 7.81279 27.6431 6.77492 25.2669 6.79073C25.0763 6.79206 24.893 6.71762 24.7572 6.58377C24.6215 6.44992 24.5445 6.26764 24.5432 6.07701C24.5418 5.88639 24.6163 5.70304 24.7501 5.56731C24.884 5.43157 25.0663 5.35456 25.2569 5.35323C28.1146 5.33454 30.2134 6.60673 31.5833 8.28286C32.9346 9.93742 33.5886 11.9959 33.6001 13.6318C33.6007 13.7262 33.5827 13.8198 33.5471 13.9072C33.5115 13.9946 33.459 14.0741 33.3927 14.1413C33.3263 14.2084 33.2474 14.2619 33.1604 14.2985C33.0734 14.3351 32.9801 14.3543 32.8857 14.3549ZM7.00781 25.3144C7.00781 25.1237 6.93209 24.9409 6.7973 24.8061C6.6625 24.6713 6.47969 24.5956 6.28906 24.5956C6.09844 24.5956 5.91562 24.6713 5.78083 24.8061C5.64604 24.9409 5.57031 25.1237 5.57031 25.3144C5.57031 26.9488 6.21 29.0116 7.55119 30.6762C8.91106 32.361 11.0012 33.6461 13.8589 33.6461C14.0496 33.6461 14.2324 33.5704 14.3672 33.4356C14.502 33.3008 14.5777 33.118 14.5777 32.9274C14.5777 32.7367 14.502 32.5539 14.3672 32.4191C14.2324 32.2843 14.0496 32.2086 13.8589 32.2086C11.4827 32.2086 9.78794 31.1592 8.66956 29.7735C7.53538 28.3647 7.00781 26.6196 7.00781 25.3129" fill="#5092FF"/>
<path d="M4.59851 28.0758C4.59851 27.8852 4.52279 27.7024 4.38799 27.5676C4.2532 27.4328 4.07039 27.3571 3.87976 27.3571C3.68914 27.3571 3.50632 27.4328 3.37153 27.5676C3.23674 27.7024 3.16101 27.8852 3.16101 28.0758C3.16101 31.3749 5.63782 35.9821 11.0284 35.9821C11.2191 35.9821 11.4019 35.9063 11.5367 35.7715C11.6715 35.6367 11.7472 35.4539 11.7472 35.2633C11.7472 35.0727 11.6715 34.8899 11.5367 34.7551C11.4019 34.6203 11.2191 34.5446 11.0284 34.5446C6.66995 34.5446 4.59851 30.8416 4.59851 28.0758Z" fill="#5092FF"/>
</svg>
