<svg width="42" height="42" viewBox="0 0 52 52" fill="none" xmlns="http://www.w3.org/2000/svg">
<g clip-path="url(#clip0_20_501)">
<path d="M39.8125 0H12.1875C5.45653 0 0 5.45653 0 12.1875V39.8125C0 46.5435 5.45653 52 12.1875 52H39.8125C46.5435 52 52 46.5435 52 39.8125V12.1875C52 5.45653 46.5435 0 39.8125 0Z" fill="#E14E1D"/>
<path d="M9.75 7.71875L11.4989 27.3392H33.9869L33.2323 35.7547L25.9917 37.7124L18.7647 35.7575L18.2815 30.354H11.7691L12.7004 40.7704L25.9903 44.4616L39.297 40.7704L41.081 20.8518H17.433L16.8393 14.2076H41.6689L42.25 7.71875H9.75Z" fill="#EBEBEB"/>
<path d="M26 7.71875H9.75L11.4989 27.3392H26V20.8518H17.433L16.8393 14.2076H26V7.71875ZM26 37.7095L25.9917 37.7124L18.7647 35.7575L18.2815 30.354H11.7691L12.7004 40.7704L25.9903 44.4616L26.0002 44.4588L26 37.7095Z" fill="#EBEBEB"/>
</g>
<defs>
<clipPath id="clip0_20_501">
<rect width="52" height="52" fill="white"/>
</clipPath>
</defs>
</svg>
