<svg width="36" height="36" viewBox="0 0 36 36" fill="none" xmlns="http://www.w3.org/2000/svg">
<g clip-path="url(#clip0_186_7)">
<path d="M27.5625 0H8.4375C3.7776 0 0 3.7776 0 8.4375V27.5625C0 32.2224 3.7776 36 8.4375 36H27.5625C32.2224 36 36 32.2224 36 27.5625V8.4375C36 3.7776 32.2224 0 27.5625 0Z" fill="#E14E1D"/>
<path d="M6.75 5.34375L7.96078 18.9271H23.5294L23.007 24.7532L17.9942 26.1086L12.9909 24.7552L12.6564 21.0143H8.14781L8.79258 28.2257L17.9933 30.7811L27.2056 28.2257L28.4407 14.4359H12.069L11.658 9.83602H28.8477L29.25 5.34375H6.75Z" fill="white"/>
<path d="M18 5.34375H6.75L7.96078 18.9271H18V14.4359H12.069L11.658 9.83602H18V5.34375ZM18 26.1066L17.9942 26.1086L12.9909 24.7552L12.6564 21.0143H8.14781L8.79258 28.2257L17.9933 30.7811L18.0001 30.7792L18 26.1066Z" fill="#EBEBEB"/>
</g>
<defs>
<clipPath id="clip0_186_7">
<rect width="36" height="36" fill="white"/>
</clipPath>
</defs>
</svg>
