<svg width="36" height="36" viewBox="0 0 36 36" fill="none" xmlns="http://www.w3.org/2000/svg">
<g clip-path="url(#clip0_186_77)">
<path d="M27.5625 0H8.4375C3.7776 0 0 3.7776 0 8.4375V27.5625C0 32.2224 3.7776 36 8.4375 36H27.5625C32.2224 36 36 32.2224 36 27.5625V8.4375C36 3.7776 32.2224 0 27.5625 0Z" fill="#330000"/>
<path d="M17.4 21.4218H11.82L10.6799 24.9468C10.65 25.0818 10.53 25.1718 10.395 25.1568H7.57494C7.40999 25.1568 7.36499 25.0668 7.40999 24.8868L12.24 10.9818C12.285 10.8319 12.33 10.6668 12.3899 10.4868C12.45 10.1718 12.4799 9.84189 12.4799 9.51185C12.465 9.43689 12.5249 9.3618 12.6 9.3469H16.4849C16.605 9.3469 16.6649 9.39189 16.68 9.46685L22.1549 24.9169C22.1999 25.0818 22.1549 25.1568 22.005 25.1568H18.8699C18.765 25.1718 18.66 25.0969 18.63 24.9918L17.4 21.4218ZM12.69 18.3768H16.5C16.41 18.0618 16.29 17.6868 16.155 17.2968C16.02 16.8918 15.885 16.4569 15.75 16.0069C15.6 15.5418 15.465 15.0918 15.3149 14.6268C15.165 14.1619 15.03 13.7268 14.9099 13.2918C14.79 12.8719 14.6849 12.4818 14.58 12.1218H14.5499C14.4149 12.7669 14.25 13.4119 14.04 14.0568C13.815 14.7768 13.59 15.5268 13.35 16.2769C13.1563 16.9849 12.9362 17.6853 12.69 18.3768ZM25.5 11.9718C25.005 11.9868 24.525 11.7918 24.165 11.4468C23.8201 11.0718 23.6401 10.5768 23.655 10.0669C23.6401 9.55685 23.835 9.07689 24.195 8.7318C24.555 8.38671 25.0351 8.20685 25.5301 8.20685C26.1151 8.20685 26.5651 8.38685 26.895 8.7318C27.2275 9.09544 27.405 9.5744 27.39 10.0669C27.405 10.5768 27.225 11.0718 26.865 11.4468C26.5201 11.8068 26.01 12.0019 25.5 11.9718ZM23.8201 24.9918V13.4419C23.8201 13.2918 23.88 13.2318 24.015 13.2318H26.985C27.12 13.2318 27.18 13.3069 27.18 13.4419V24.9918C27.18 25.1568 27.12 25.2319 26.985 25.2319H24.0451C23.895 25.2319 23.8201 25.1419 23.8201 24.9918Z" fill="#FF9A00"/>
</g>
<defs>
<clipPath id="clip0_186_77">
<rect width="36" height="36" fill="white"/>
</clipPath>
</defs>
</svg>
