<svg width="42" height="42" viewBox="0 0 52 52" fill="none" xmlns="http://www.w3.org/2000/svg">
<g clip-path="url(#clip0_20_535)">
<path d="M39.8125 0H12.1875C5.45653 0 0 5.45653 0 12.1875V39.8125C0 46.5435 5.45653 52 12.1875 52H39.8125C46.5435 52 52 46.5435 52 39.8125V12.1875C52 5.45653 46.5435 0 39.8125 0Z" fill="#330000"/>
<path d="M25.1334 30.9428H17.0734L15.4267 36.0345C15.3834 36.2295 15.2102 36.3595 15.0152 36.3378H10.9417C10.7034 36.3378 10.6384 36.2078 10.7034 35.9478L17.6802 15.8628C17.7452 15.6462 17.8102 15.4078 17.8967 15.1478C17.9834 14.6928 18.0267 14.2162 18.0267 13.7395C18.0052 13.6312 18.0917 13.5228 18.2002 13.5012H23.8117C23.9852 13.5012 24.0717 13.5662 24.0934 13.6745L32.0017 35.9912C32.0667 36.2295 32.0017 36.3378 31.7852 36.3378H27.2567C27.1052 36.3595 26.9534 36.2512 26.9102 36.0995L25.1334 30.9428ZM18.3302 26.5445H23.8334C23.7034 26.0895 23.5302 25.5478 23.3352 24.9845C23.1402 24.3995 22.9452 23.7712 22.7502 23.1212C22.5334 22.4495 22.3384 21.7995 22.1217 21.1278C21.9052 20.4562 21.7102 19.8278 21.5367 19.1995C21.3634 18.593 21.2117 18.0295 21.0602 17.5095H21.0167C20.8217 18.4412 20.5834 19.373 20.2802 20.3045C19.9552 21.3445 19.6302 22.4278 19.2834 23.5112C19.0037 24.5339 18.6857 25.5457 18.3302 26.5445ZM36.8334 17.2928C36.1184 17.3145 35.4252 17.0328 34.9052 16.5345C34.4069 15.9928 34.1469 15.2778 34.1684 14.5412C34.1469 13.8045 34.4284 13.1112 34.9484 12.6128C35.4684 12.1143 36.1619 11.8545 36.8769 11.8545C37.7219 11.8545 38.3719 12.1145 38.8484 12.6128C39.3287 13.138 39.5852 13.8298 39.5634 14.5412C39.5852 15.2778 39.3252 15.9928 38.8052 16.5345C38.3069 17.0545 37.5702 17.3362 36.8334 17.2928ZM34.4069 36.0995V19.4162C34.4069 19.1995 34.4934 19.1128 34.6884 19.1128H38.9784C39.1734 19.1128 39.2602 19.2212 39.2602 19.4162V36.0995C39.2602 36.3378 39.1734 36.4462 38.9784 36.4462H34.7319C34.5152 36.4462 34.4069 36.3162 34.4069 36.0995Z" fill="#FF9A00"/>
</g>
<defs>
<clipPath id="clip0_20_535">
<rect width="52" height="52" fill="white"/>
</clipPath>
</defs>
</svg>
