<svg width="44" height="44" viewBox="0 0 44 44" fill="none" xmlns="http://www.w3.org/2000/svg">
<path d="M14.2998 3.66663H29.6998C35.5665 3.66663 40.3332 8.43329 40.3332 14.3V29.7C40.3332 32.5201 39.2129 35.2247 37.2187 37.2189C35.2246 39.213 32.52 40.3333 29.6998 40.3333H14.2998C8.43317 40.3333 3.6665 35.5666 3.6665 29.7V14.3C3.6665 11.4798 4.7868 8.77519 6.78094 6.78106C8.77507 4.78692 11.4797 3.66663 14.2998 3.66663ZM13.9332 7.33329C12.1827 7.33329 10.504 8.02865 9.26627 9.26639C8.02853 10.5041 7.33317 12.1829 7.33317 13.9333V30.0666C7.33317 33.715 10.2848 36.6666 13.9332 36.6666H30.0665C31.8169 36.6666 33.4957 35.9713 34.7334 34.7335C35.9712 33.4958 36.6665 31.8171 36.6665 30.0666V13.9333C36.6665 10.285 33.7148 7.33329 30.0665 7.33329H13.9332ZM31.6248 10.0833C32.2326 10.0833 32.8155 10.3247 33.2453 10.7545C33.6751 11.1843 33.9165 11.7672 33.9165 12.375C33.9165 12.9827 33.6751 13.5656 33.2453 13.9954C32.8155 14.4252 32.2326 14.6666 31.6248 14.6666C31.0171 14.6666 30.4342 14.4252 30.0044 13.9954C29.5746 13.5656 29.3332 12.9827 29.3332 12.375C29.3332 11.7672 29.5746 11.1843 30.0044 10.7545C30.4342 10.3247 31.0171 10.0833 31.6248 10.0833ZM21.9998 12.8333C24.431 12.8333 26.7626 13.7991 28.4816 15.5181C30.2007 17.2372 31.1665 19.5688 31.1665 22C31.1665 24.4311 30.2007 26.7627 28.4816 28.4818C26.7626 30.2009 24.431 31.1666 21.9998 31.1666C19.5687 31.1666 17.2371 30.2009 15.518 28.4818C13.7989 26.7627 12.8332 24.4311 12.8332 22C12.8332 19.5688 13.7989 17.2372 15.518 15.5181C17.2371 13.7991 19.5687 12.8333 21.9998 12.8333ZM21.9998 16.5C20.5411 16.5 19.1422 17.0794 18.1107 18.1109C17.0793 19.1423 16.4998 20.5413 16.4998 22C16.4998 23.4587 17.0793 24.8576 18.1107 25.889C19.1422 26.9205 20.5411 27.5 21.9998 27.5C23.4585 27.5 24.8575 26.9205 25.8889 25.889C26.9204 24.8576 27.4998 23.4587 27.4998 22C27.4998 20.5413 26.9204 19.1423 25.8889 18.1109C24.8575 17.0794 23.4585 16.5 21.9998 16.5Z" fill="white"/>
</svg>
