<svg width="36" height="36" viewBox="0 0 36 36" fill="none" xmlns="http://www.w3.org/2000/svg">
<g clip-path="url(#clip0_186_55)">
<path d="M27.5625 0H8.4375C3.7776 0 0 3.7776 0 8.4375V27.5625C0 32.2224 3.7776 36 8.4375 36H27.5625C32.2224 36 36 32.2224 36 27.5625V8.4375C36 3.7776 32.2224 0 27.5625 0Z" fill="#F0DB4F"/>
<path d="M9.46578 30.0842L12.2206 28.4169C12.7522 29.3592 13.2357 30.1566 14.3954 30.1566C15.507 30.1566 16.2079 29.7218 16.2079 28.0303V16.5275H19.5911V28.0781C19.5911 31.5821 17.5371 33.1771 14.5404 33.1771C11.834 33.1771 10.2631 31.7755 9.46564 30.0839M21.4286 29.7216L24.1832 28.1268C24.9084 29.311 25.8508 30.1809 27.5181 30.1809C28.92 30.1809 29.8138 29.48 29.8138 28.5134C29.8138 27.3535 28.8955 26.9426 27.3489 26.2662L26.5033 25.9035C24.0625 24.8646 22.4434 23.5596 22.4434 20.8047C22.4434 18.2673 24.3767 16.334 27.3974 16.334C29.5482 16.334 31.0947 17.0832 32.2062 19.0406L29.5722 20.7322C28.9921 19.6931 28.3641 19.2823 27.3974 19.2823C26.4066 19.2823 25.7783 19.9106 25.7783 20.7322C25.7783 21.7471 26.4066 22.158 27.8564 22.7864L28.7022 23.1488C31.5778 24.3814 33.197 25.6377 33.197 28.465C33.197 31.5101 30.8046 33.1773 27.5907 33.1773C24.4492 33.1773 22.4193 31.6791 21.4286 29.7216Z" fill="#323330"/>
</g>
<defs>
<clipPath id="clip0_186_55">
<rect width="36" height="36" fill="white"/>
</clipPath>
</defs>
</svg>
