<svg width="42" height="42" viewBox="0 0 52 52" fill="none" xmlns="http://www.w3.org/2000/svg">
<g clip-path="url(#clip0_20_495)">
<path d="M39.8125 0H12.1875C5.45653 0 0 5.45653 0 12.1875V39.8125C0 46.5435 5.45653 52 12.1875 52H39.8125C46.5435 52 52 46.5435 52 39.8125V12.1875C52 5.45653 46.5435 0 39.8125 0Z" fill="#F0DB4F"/>
<path d="M13.6728 43.4549L17.652 41.0466C18.4198 42.4078 19.1182 43.5595 20.7934 43.5595C22.3991 43.5595 23.4114 42.9314 23.4114 40.4882V23.873H28.2982V40.5573C28.2982 45.6186 25.3314 47.9224 21.0028 47.9224C17.0936 47.9224 14.8245 45.8978 13.6726 43.4545M30.9525 42.9312L34.9313 40.6276C35.9788 42.3381 37.3401 43.5946 39.7484 43.5946C41.7733 43.5946 43.0644 42.5822 43.0644 41.186C43.0644 39.5106 41.738 38.9171 39.504 37.94L38.2826 37.4162C34.757 35.9155 32.4182 34.0305 32.4182 30.0513C32.4182 26.3861 35.2108 23.5935 39.5741 23.5935C42.6807 23.5935 44.9147 24.6758 46.5202 27.5031L42.7154 29.9464C41.8775 28.4456 40.9704 27.8522 39.5741 27.8522C38.1429 27.8522 37.2353 28.7598 37.2353 29.9464C37.2353 31.4124 38.1429 32.0059 40.2371 32.9137L41.4587 33.4371C45.6124 35.2175 47.9512 37.0323 47.9512 41.1161C47.9512 45.5146 44.4956 47.9228 39.8532 47.9228C35.3156 47.9228 32.3835 45.7587 30.9525 42.9312Z" fill="#323330"/>
</g>
<defs>
<clipPath id="clip0_20_495">
<rect width="52" height="52" fill="white"/>
</clipPath>
</defs>
</svg>
