<svg width="36" height="36" viewBox="0 0 36 36" fill="none" xmlns="http://www.w3.org/2000/svg">
<g clip-path="url(#clip0_186_85)">
<path d="M27.5625 0H8.4375C3.7776 0 0 3.7776 0 8.4375V27.5625C0 32.2224 3.7776 36 8.4375 36H27.5625C32.2224 36 36 32.2224 36 27.5625V8.4375C36 3.7776 32.2224 0 27.5625 0Z" fill="#242938"/>
<path fill-rule="evenodd" clip-rule="evenodd" d="M30.3533 11.013C30.3624 11.0473 30.367 11.0823 30.3671 11.118V16.6304C30.3671 16.7011 30.3487 16.7706 30.3138 16.8317C30.279 16.8928 30.2287 16.9436 30.168 16.979L25.6053 19.6427V24.9225C25.6055 24.9928 25.5874 25.062 25.5526 25.1232C25.5178 25.1844 25.4677 25.2354 25.4071 25.2712L15.8829 30.8308C15.8611 30.8433 15.8373 30.8513 15.8136 30.8599C15.8046 30.863 15.7963 30.8685 15.7868 30.871C15.7203 30.8888 15.6502 30.8888 15.5836 30.871C15.5728 30.8679 15.5628 30.8619 15.5524 30.858C15.5306 30.8499 15.5078 30.8429 15.487 30.8308L5.96475 25.2712C5.90413 25.2357 5.85388 25.185 5.81906 25.124C5.78409 25.0626 5.76568 24.9931 5.76562 24.9225V8.38538C5.76581 8.3491 5.77045 8.31394 5.77955 8.27991C5.78236 8.26824 5.78939 8.25769 5.79333 8.24616C5.80078 8.22507 5.80767 8.20355 5.81864 8.18387C5.82609 8.17079 5.83692 8.16024 5.84592 8.14829C5.85717 8.13212 5.86772 8.11552 5.88108 8.10146C5.89233 8.08993 5.90737 8.08135 5.92017 8.07137C5.93452 8.05927 5.94745 8.04619 5.96377 8.03663H5.96433L10.7255 5.2569C10.7856 5.22184 10.854 5.20337 10.9237 5.20337C10.9933 5.20337 11.0617 5.22184 11.1219 5.2569L15.8833 8.03663H15.8843C15.9 8.04676 15.9135 8.05927 15.9279 8.0708C15.9407 8.08093 15.955 8.08993 15.9664 8.10104C15.9803 8.11552 15.9903 8.13212 16.0021 8.14829C16.0106 8.16024 16.022 8.17079 16.0289 8.18387C16.0403 8.20397 16.0467 8.22507 16.0547 8.24616C16.0587 8.25769 16.0656 8.26824 16.0685 8.28033C16.0776 8.31474 16.0822 8.34976 16.0824 8.38538V18.7143L20.05 16.3978V11.1173C20.05 11.0821 20.055 11.0466 20.064 11.013C20.0675 11.0009 20.0738 10.9903 20.0779 10.9788C20.0858 10.9577 20.0926 10.936 20.1036 10.9165C20.1111 10.9034 20.1219 10.8929 20.1303 10.8808C20.1423 10.8647 20.1521 10.8481 20.166 10.8341C20.1774 10.8226 20.1918 10.814 20.2047 10.8038C20.2195 10.7919 20.2324 10.7788 20.2483 10.7693H20.2489L25.0107 7.98938C25.0708 7.95421 25.1392 7.93567 25.2089 7.93567C25.2785 7.93567 25.3469 7.95421 25.407 7.98938L30.1684 10.7693C30.1853 10.7794 30.1981 10.7918 30.213 10.8034C30.2254 10.8134 30.2397 10.8226 30.2511 10.8335C30.265 10.8481 30.2749 10.8647 30.2868 10.8808C30.2957 10.8929 30.3067 10.9033 30.3135 10.9165C30.3249 10.9362 30.3314 10.9577 30.3393 10.9788C30.3438 10.9903 30.3504 11.0009 30.3533 11.013ZM29.5733 16.3978V11.8138L27.907 12.7864L25.6051 14.1303V18.7143L29.5737 16.3978H29.5733ZM24.8119 24.6899V20.103L22.5477 21.4143L16.0819 25.1562V29.7863L24.8119 24.6899ZM6.55931 9.08119V24.6899L15.2883 29.7858V25.1566L10.7281 22.5396L10.7267 22.5386L10.7246 22.5376C10.7093 22.5286 10.6965 22.5155 10.682 22.5044C10.6696 22.4944 10.6553 22.4864 10.6445 22.4753L10.6435 22.4739C10.6305 22.4612 10.6215 22.4458 10.6107 22.4316C10.6009 22.4181 10.5889 22.4065 10.581 22.3925L10.5805 22.3909C10.5715 22.3759 10.566 22.3577 10.5597 22.3407C10.5532 22.3257 10.5448 22.3116 10.5408 22.2954V22.2949C10.5359 22.2759 10.5349 22.2558 10.5328 22.2361C10.5308 22.2211 10.5269 22.206 10.5269 22.191V11.3978L8.22558 10.0533L6.55931 9.08162V9.08119ZM10.9243 6.06971L6.95728 8.38552L10.9233 10.7011L14.8899 8.38496L10.9233 6.06985L10.9243 6.06971ZM12.9874 20.5209L15.2889 19.1775V9.08119L13.6225 10.0539L11.3207 11.3977V21.4942L12.9874 20.5209ZM25.209 8.80233L21.2422 11.118L25.209 13.4335L29.175 11.1174L25.209 8.80233ZM24.812 14.1303L22.5101 12.7864L20.844 11.8138V16.3978L23.1453 17.7412L24.812 18.7143V14.1303ZM15.6848 24.4604L21.5028 21.0921L24.4112 19.4091L20.4476 17.095L15.8839 19.7593L11.7245 22.1874L15.6848 24.4604Z" fill="#FF2D20"/>
</g>
<defs>
<clipPath id="clip0_186_85">
<rect width="36" height="36" fill="white"/>
</clipPath>
</defs>
</svg>
