<svg width="42" height="52" viewBox="0 0 52 52" fill="none" xmlns="http://www.w3.org/2000/svg">
<g clip-path="url(#clip0_20_524)">
<path d="M11.0787 0.0447325C10.9975 0.07642 8.71437 1.37723 6.0059 2.93398C2.72422 4.82061 1.03868 5.81429 0.948496 5.90773C0.871309 5.99914 0.810371 6.10354 0.770559 6.21648C0.702715 6.44561 0.69784 39.9291 0.766496 40.17C0.791277 40.2635 0.872121 40.4008 0.945246 40.4764C1.12237 40.6632 20.715 51.9285 20.9531 51.983C21.0636 52.0094 21.1875 52.0049 21.3106 51.9708C21.5779 51.9038 41.1193 40.6632 41.2932 40.4796C41.3643 40.4004 41.4455 40.2635 41.4719 40.1704C41.5061 40.0595 41.5187 38.3098 41.5187 34.6231V29.2362L46.2823 26.5001C50.7738 23.9176 51.0489 23.7559 51.1642 23.5788L51.2821 23.3879V17.5854C51.2821 11.269 51.2943 11.6245 51.0444 11.3962C50.9774 11.3369 48.689 10.0015 45.9541 8.42648L40.9865 5.56973H40.4344L35.5744 8.36067C32.8988 9.89954 30.6247 11.2154 30.5137 11.2869C30.4032 11.36 30.2712 11.4949 30.2172 11.5928L30.1189 11.7622L30.0969 17.2283L30.0774 22.6964L26.0641 25.008C23.8565 26.2771 22.0191 27.3277 21.9801 27.3374C21.909 27.3573 21.9041 26.8369 21.9041 16.7887V6.21283L21.7985 6.03123C21.666 5.80983 22.26 6.16286 16.2962 2.73492C11.2949 -0.14133 11.4151 -0.081205 11.0787 0.0447325ZM15.6763 4.23195C17.7685 5.43242 19.4804 6.4257 19.4804 6.43789C19.4804 6.45048 17.6458 7.51079 15.4037 8.79942L11.3245 11.1415L7.25268 8.79983C5.01547 7.51079 3.18206 6.45048 3.18206 6.43789C3.18206 6.42529 5.01222 5.36539 7.24984 4.07961L11.3119 1.74286L11.5922 1.89561C12.9562 2.67019 14.3175 3.44897 15.6763 4.23195ZM44.7914 9.61923C46.9941 10.8875 48.8165 11.9357 48.8336 11.9527C48.8799 11.9946 40.8004 16.6388 40.6899 16.634C40.5794 16.6307 32.5994 12.0291 32.6027 11.973C32.6067 11.9093 40.6355 7.2902 40.7167 7.30279C40.7537 7.31173 42.5883 8.35498 44.7914 9.61923ZM6.62178 10.2895L10.5047 12.5251L10.5271 23.5942L10.5474 34.6654L10.642 34.8149C10.6916 34.8937 10.785 35.0013 10.8533 35.0509C10.9175 35.0976 13.0783 36.3289 15.6543 37.7825L20.3343 40.4256V45.1084C20.3343 47.6784 20.3169 49.7868 20.2949 49.7868C20.2783 49.7868 16.2324 47.4716 11.3071 44.6372L2.35331 39.4879L2.34112 23.658L2.3334 7.83295L2.53247 7.94304C2.64743 8.00398 4.48531 9.05942 6.62137 10.2891L6.62178 10.2895ZM20.3343 18.0814V28.2819L20.1771 28.3847C19.9638 28.5196 12.1874 32.9896 12.161 32.9896C12.1488 32.9896 12.1391 28.3843 12.1391 22.7549L12.1439 12.5247L16.2064 10.188C18.4404 8.9022 20.2827 7.85895 20.3047 7.86667C20.3205 7.87642 20.3343 12.4735 20.3343 18.0814ZM35.8328 15.7353L39.9046 18.0765V22.7175C39.9046 27.1205 39.9002 27.3569 39.8331 27.3313C39.7897 27.3147 37.9473 26.2588 35.7369 24.9856L31.711 22.6741V18.0347C31.711 15.4806 31.724 13.3937 31.7362 13.3937C31.7536 13.3937 33.5956 14.4467 35.8328 15.7353ZM49.7119 18.005C49.7119 20.5457 49.6948 22.6412 49.6778 22.6615C49.6485 22.7082 41.595 27.3488 41.5438 27.3488C41.5312 27.3488 41.5187 25.2627 41.5187 22.7082V18.0688L45.5812 15.7305C47.8184 14.4467 49.6607 13.3937 49.6778 13.3937C49.6993 13.3937 49.7119 15.4676 49.7119 18.005ZM38.9971 28.8166L21.1269 39.0163L13.0227 34.4066C13.0227 34.4066 30.8749 24.0813 30.9464 24.1081L38.9971 28.8166ZM39.8969 34.84L39.8831 39.4884L30.9342 44.638C26.0105 47.472 21.9634 49.7872 21.9431 49.7872C21.9216 49.7872 21.9045 47.8949 21.9045 45.1088V40.426L30.8745 35.3105C35.8031 32.498 39.853 30.1958 39.8746 30.1909C39.892 30.1909 39.8997 32.2823 39.8965 34.8396L39.8969 34.84Z" fill="#F0513F"/>
</g>
<defs>
<clipPath id="clip0_20_524">
<rect width="52" height="52" fill="white"/>
</clipPath>
</defs>
</svg>
