<svg width="45" height="45" viewBox="0 0 52 52" fill="none" xmlns="http://www.w3.org/2000/svg">
<g clip-path="url(#clip0_20_564)">
<path d="M39.8125 0H12.1875C5.45653 0 0 5.45653 0 12.1875V39.8125C0 46.5435 5.45653 52 12.1875 52H39.8125C46.5435 52 52 46.5435 52 39.8125V12.1875C52 5.45653 46.5435 0 39.8125 0Z" fill="#023430"/>
<path d="M34.7695 21.8544C32.6292 12.413 28.1685 9.8995 27.0306 8.12277C26.5611 7.34018 26.1455 6.52655 25.7865 5.6875C25.7264 6.52641 25.6159 7.05453 24.9029 7.69072C23.4715 8.96695 17.3919 13.9212 16.8803 24.6488C16.4035 34.6511 24.2334 40.8186 25.2677 41.4562C26.0631 41.8476 27.0318 41.4645 27.5045 41.1052C31.2788 38.5149 36.4357 31.6091 34.7735 21.8544" fill="#10AA50"/>
<path d="M26.1107 36.1301C25.9136 38.6058 25.7725 40.0443 25.272 41.4591C25.272 41.4591 25.6004 43.816 25.8312 46.3126H26.6475C26.8425 44.5545 27.1399 42.8092 27.538 41.0858C26.4812 40.5658 26.1513 38.3025 26.1107 36.1301Z" fill="#B8C4C2"/>
<path d="M27.5367 41.087C26.4686 40.5937 26.1597 38.2827 26.1121 36.13C26.3761 32.5788 26.4531 29.0161 26.3429 25.4568C26.2868 23.5892 26.3693 8.15906 25.8828 5.8999C26.2154 6.66516 26.5989 7.40728 27.0307 8.12128C28.1686 9.89943 32.6306 12.4129 34.7695 21.8544C36.4358 31.5924 31.3069 38.4799 27.5367 41.087Z" fill="#12924F"/>
</g>
<defs>
<clipPath id="clip0_20_564">
<rect width="52" height="52" fill="white"/>
</clipPath>
</defs>
</svg>
