<svg width="46" height="46" viewBox="0 0 56 56" fill="none" xmlns="http://www.w3.org/2000/svg">
<path d="M42.875 0H13.125C5.87626 0 0 5.87626 0 13.125V42.875C0 50.1237 5.87626 56 13.125 56H42.875C50.1237 56 56 50.1237 56 42.875V13.125C56 5.87626 50.1237 0 42.875 0Z" fill="#242938"/>
<mask id="mask0_26_8" style="mask-type:luminance" maskUnits="userSpaceOnUse" x="8" y="8" width="40" height="40">
<path d="M8.3125 8.3125H47.6875V47.6875H8.3125V8.3125Z" fill="white"/>
</mask>
<g mask="url(#mask0_26_8)">
<path fill-rule="evenodd" clip-rule="evenodd" d="M44.5818 38.983C42.4402 38.9235 40.7788 39.143 39.3865 39.7288C38.9855 39.8898 38.3421 39.8898 38.2892 40.3944C38.5036 40.6062 38.5294 40.9527 38.7173 41.2462C39.0382 41.7789 39.6013 42.4964 40.1096 42.8687L41.8233 44.0933C42.8676 44.7314 44.0458 45.1043 45.0632 45.7431C45.6525 46.1158 46.2414 46.5949 46.8307 46.9945C47.1309 47.2074 47.3126 47.5541 47.6878 47.6864V47.6059C47.5005 47.3673 47.4465 47.0215 47.2599 46.7541L46.4556 45.9828C45.6797 44.9451 44.715 44.0394 43.6707 43.295C42.8136 42.7094 40.9398 41.9112 40.5915 40.9271L40.5388 40.8674C41.127 40.8079 41.8233 40.6007 42.3862 40.441C43.2973 40.2024 44.1268 40.2549 45.0632 40.0155L46.3495 39.6428V39.4041C45.8674 38.9253 45.5193 38.2863 45.011 37.8344C43.6455 36.6634 42.1449 35.5187 40.5915 34.5608C39.7616 34.0288 38.6902 33.6821 37.8066 33.2306C37.4844 33.0707 36.9496 32.9908 36.7623 32.7248C36.2791 32.1403 36.012 31.3677 35.664 30.6754L33.4684 26.0449C32.9865 25.0069 32.6912 23.9689 32.103 23.011C29.3443 18.4866 26.3446 15.7459 21.7386 13.0574C20.7483 12.4985 19.5701 12.2581 18.3173 11.9659L16.3092 11.8587C15.88 11.6725 15.4519 11.1666 15.077 10.9268C13.5505 9.9687 9.61392 7.8932 8.48823 10.6287C7.76527 12.3583 9.55989 14.0613 10.1691 14.94C10.6252 15.5521 11.2134 16.2438 11.5356 16.9359C11.7157 17.388 11.7758 17.8675 11.9637 18.3466C12.3916 19.5174 12.7937 20.822 13.3561 21.9135C13.6562 22.4724 13.9714 23.0587 14.3464 23.564C14.5607 23.8622 14.9359 23.9899 15.0157 24.4688C14.6406 25.0014 14.6148 25.799 14.4004 26.4653C13.4359 29.4727 13.8111 33.1984 15.1765 35.4126C15.6057 36.0776 16.617 37.5419 17.9892 36.9826C19.1943 36.5035 18.9255 34.9867 19.2735 33.6558C19.3544 33.3369 19.3006 33.1238 19.4607 32.9103V32.97L20.5591 35.1788C21.3892 36.4827 22.8358 37.8403 24.0403 38.7457C24.6825 39.2248 25.1915 40.0503 25.9946 40.3426V40.2621H25.9419C25.7809 40.0234 25.5396 39.916 25.3254 39.7299C24.8435 39.251 24.308 38.6652 23.9329 38.1332C22.8087 36.6431 21.8184 34.9926 20.9342 33.2896C20.5053 32.4647 20.1301 31.5598 19.7832 30.7349C19.6211 30.4153 19.6211 29.9355 19.354 29.7769C18.9517 30.3614 18.3637 30.8685 18.0677 31.5867C17.5587 32.7307 17.506 34.1414 17.3187 35.6053C17.2107 35.632 17.2586 35.6053 17.2107 35.6648C16.3547 35.4526 16.0594 34.5733 15.7385 33.8289C14.9352 31.9393 14.8007 28.9054 15.497 26.723C15.6842 26.1641 16.4886 24.4075 16.1675 23.8753C16.0056 23.3695 15.4712 23.0773 15.1759 22.6776C14.8278 22.1719 14.454 21.5336 14.2127 20.9747C13.5705 19.4834 13.2493 17.8341 12.5524 16.3437C12.2302 15.6516 11.6684 14.9328 11.2128 14.2947C10.7037 13.5759 10.1426 13.0699 9.74058 12.2188C9.6067 11.9206 9.41945 11.447 9.63361 11.1272C9.68655 10.9144 9.79439 10.829 10.0077 10.7814C10.3555 10.483 11.3473 10.8612 11.6953 11.0198C12.6856 11.4194 13.5158 11.7918 14.3459 12.35C14.7211 12.616 15.1231 13.122 15.605 13.2556H16.1681C17.0252 13.4416 17.9885 13.3151 18.7909 13.5538C20.2106 14.007 21.4955 14.6716 22.6479 15.3909C26.1556 17.5998 29.0485 20.7402 31.0026 24.4933C31.3238 25.1053 31.4576 25.6642 31.753 26.303C32.316 27.6076 33.0123 28.9378 33.5734 30.216C34.1365 31.4668 34.6717 32.7452 35.475 33.7829C35.877 34.3418 37.4831 34.6341 38.2059 34.927C38.7418 35.1656 39.5713 35.3804 40.0545 35.6727C40.9643 36.2316 41.875 36.8704 42.7314 37.4824C43.1592 37.8009 44.4991 38.4666 44.5787 38.9975L44.5818 38.983ZM17.2724 15.8561C16.9025 15.853 16.5337 15.8977 16.1753 15.9891V16.0489H16.228C16.4424 16.4748 16.8176 16.7677 17.0851 17.1404L17.7015 18.4179L17.7545 18.3584C18.1294 18.0924 18.3173 17.6665 18.3173 17.0284C18.1565 16.8423 18.1301 16.6554 17.9962 16.4693C17.8354 16.2033 17.4874 16.0696 17.2724 15.8574V15.8561Z" fill="white"/>
</g>
</svg>
