<svg width="36" height="36" viewBox="0 0 36 36" fill="none" xmlns="http://www.w3.org/2000/svg">
<g clip-path="url(#clip0_186_65)">
<path d="M27.5625 0H8.4375C3.7776 0 0 3.7776 0 8.4375V27.5625C0 32.2224 3.7776 36 8.4375 36H27.5625C32.2224 36 36 32.2224 36 27.5625V8.4375C36 3.7776 32.2224 0 27.5625 0Z" fill="#242938"/>
<mask id="mask0_186_65" style="mask-type:luminance" maskUnits="userSpaceOnUse" x="5" y="5" width="26" height="26">
<path d="M5.34375 5.34375H30.6562V30.6562H5.34375V5.34375Z" fill="white"/>
</mask>
<g mask="url(#mask0_186_65)">
<path fill-rule="evenodd" clip-rule="evenodd" d="M28.6595 25.0608C27.2827 25.0225 26.2147 25.1636 25.3196 25.5402C25.0619 25.6437 24.6483 25.6437 24.6142 25.9681C24.7521 26.1042 24.7687 26.327 24.8894 26.5157C25.0957 26.8581 25.4577 27.3193 25.7845 27.5587L26.8862 28.3459C27.5575 28.7561 28.3149 28.9959 28.969 29.4065C29.3478 29.6461 29.7264 29.9541 30.1052 30.211C30.2982 30.3478 30.415 30.5707 30.6562 30.6558V30.6041C30.5358 30.4506 30.5011 30.2283 30.3811 30.0565L29.8641 29.5606C29.3653 28.8935 28.7451 28.3113 28.0738 27.8328C27.5228 27.4563 26.3182 26.9432 26.0943 26.3105L26.0604 26.2721C26.4386 26.2339 26.8862 26.1007 27.248 25.998C27.8337 25.8446 28.367 25.8784 28.969 25.7245L29.7959 25.4849V25.3315C29.4859 25.0236 29.2622 24.6129 28.9354 24.3223C28.0576 23.5696 27.0929 22.8337 26.0943 22.2179C25.5608 21.8759 24.872 21.653 24.304 21.3628C24.0969 21.26 23.7531 21.2086 23.6327 21.0376C23.322 20.6619 23.1503 20.1652 22.9266 19.7201L21.5151 16.7434C21.2054 16.0761 21.0155 15.4088 20.6374 14.793C18.8639 11.8845 16.9356 10.1226 13.9746 8.39432C13.3379 8.03502 12.5805 7.88047 11.7752 7.6926L10.4842 7.62369C10.2083 7.50402 9.93313 7.17875 9.6921 7.02463C8.71082 6.40869 6.18013 5.07444 5.45648 6.83296C4.99171 7.94488 6.1454 9.03965 6.53704 9.60454C6.83024 9.998 7.20838 10.4427 7.41553 10.8876C7.53126 11.1783 7.56993 11.4865 7.69073 11.7945C7.96579 12.5471 8.22426 13.3858 8.58581 14.0875C8.77874 14.4468 8.98138 14.8237 9.22242 15.1485C9.36023 15.3402 9.6014 15.4223 9.65273 15.7302C9.41156 16.0726 9.39496 16.5853 9.25715 17.0136C8.63713 18.947 8.87831 21.3421 9.75609 22.7655C10.032 23.193 10.6821 24.1343 11.5642 23.7748C12.3389 23.4668 12.1661 22.4917 12.3899 21.6361C12.4419 21.4311 12.4073 21.2941 12.5102 21.1569V21.1953L13.2163 22.6152C13.75 23.4534 14.6799 24.3261 15.4542 24.9082C15.8671 25.2162 16.1943 25.7469 16.7106 25.9348V25.883H16.6767C16.5732 25.7296 16.4181 25.6605 16.2804 25.5409C15.9706 25.233 15.6263 24.8564 15.3852 24.5144C14.6625 23.5565 14.0259 22.4955 13.4575 21.4007C13.1817 20.8704 12.9405 20.2887 12.7175 19.7584C12.6133 19.5529 12.6133 19.2445 12.4416 19.1426C12.183 19.5183 11.805 19.8443 11.6147 20.306C11.2875 21.0414 11.2536 21.9483 11.1332 22.8894C11.0638 22.9065 11.0946 22.8894 11.0638 22.9276C10.5135 22.7912 10.3237 22.2259 10.1174 21.7474C9.60098 20.5326 9.51449 18.5823 9.9621 17.1793C10.0825 16.82 10.5996 15.6908 10.3931 15.3486C10.2891 15.0235 9.94551 14.8356 9.75567 14.5787C9.53193 14.2536 9.2916 13.8433 9.13649 13.484C8.72362 12.5253 8.51718 11.465 8.06915 10.5069C7.86201 10.062 7.50088 9.59989 7.20796 9.18969C6.88073 8.7276 6.52003 8.40233 6.26156 7.85516C6.17549 7.66349 6.05512 7.35904 6.19279 7.15344C6.22682 7.01661 6.29615 6.96177 6.43326 6.93111C6.65685 6.7393 7.29445 6.98244 7.51818 7.08439C8.15479 7.34132 8.68846 7.58066 9.22213 7.93954C9.46331 8.11054 9.72178 8.4358 10.0316 8.52172H10.3935C10.9445 8.64125 11.5638 8.55997 12.0796 8.7134C12.9923 9.00477 13.8183 9.43199 14.5591 9.89436C16.8141 11.3144 18.6738 13.3332 19.93 15.7459C20.1365 16.1394 20.2225 16.4987 20.4124 16.9093C20.7743 17.748 21.2219 18.6031 21.5827 19.4248C21.9446 20.2289 22.2887 21.0507 22.8051 21.7178C23.0636 22.0771 24.096 22.265 24.5607 22.4533C24.9052 22.6067 25.4384 22.7448 25.7491 22.9327C26.3339 23.292 26.9194 23.7026 27.4699 24.0961C27.745 24.3008 28.6063 24.7288 28.6575 25.0701L28.6595 25.0608ZM11.1034 10.1935C10.8656 10.1914 10.6286 10.2202 10.3982 10.279V10.3174H10.4321C10.5699 10.5912 10.8111 10.7795 10.983 11.0191L11.3793 11.8403L11.4134 11.8021C11.6544 11.6311 11.7752 11.3573 11.7752 10.9471C11.6718 10.8274 11.6548 10.7073 11.5687 10.5876C11.4654 10.4166 11.2417 10.3307 11.1034 10.1943V10.1935Z" fill="white"/>
</g>
</g>
<defs>
<clipPath id="clip0_186_65">
<rect width="36" height="36" fill="white"/>
</clipPath>
</defs>
</svg>
