<svg width="40" height="55" viewBox="0 0 48 55" fill="none" xmlns="http://www.w3.org/2000/svg">
<path d="M22.6957 0.351379C23.091 0.121259 23.5405 0 23.9983 0C24.456 0 24.9055 0.121259 25.3009 0.351379L46.7146 12.812C47.1055 13.0387 47.4299 13.3637 47.6554 13.7545C47.881 14.1454 47.9998 14.5884 48 15.0394V39.9606C47.9998 40.4116 47.881 40.8546 47.6554 41.2455C47.4299 41.6363 47.1055 41.9613 46.7146 42.188L25.3009 54.6486C24.9055 54.8787 24.456 55 23.9983 55C23.5405 55 23.091 54.8787 22.6957 54.6486L17.344 51.5343C16.7517 51.1897 16.321 50.6246 16.1465 49.9632C15.972 49.3018 16.0681 48.5983 16.4135 48.0075C16.759 47.4168 17.3256 46.9871 17.9886 46.8131C18.6517 46.639 19.3569 46.7348 19.9492 47.0795L23.9983 49.4375L42.8309 38.4791V16.5209L23.9983 5.56248L5.16907 16.5209V38.4791L9.01831 40.7203C10.2037 41.0984 11.6718 41.1912 12.7021 40.7374C13.2415 40.5018 13.6841 40.0895 13.9565 39.5687C14.3149 38.9225 14.6457 37.8466 14.6457 36.0935V18.0471C14.6457 17.3634 14.918 16.7077 15.4027 16.2242C15.8874 15.7407 16.5448 15.4691 17.2302 15.4691C17.9157 15.4691 18.5731 15.7407 19.0578 16.2242C19.5425 16.7077 19.8148 17.3634 19.8148 18.0471V36.0935C19.8148 38.4699 19.3668 40.4636 18.4708 42.0746C17.6519 43.5755 16.3578 44.7637 14.7904 45.4536C12.0129 46.6773 8.94249 46.1754 7.0644 45.5017C6.91756 45.445 6.77479 45.3784 6.63709 45.3023L1.28193 42.188C0.891722 41.9609 0.568018 41.6357 0.343089 41.2449C0.118161 40.8541 -0.00013376 40.4112 1.13502e-07 39.9606V15.0394C-0.00013376 14.5888 0.118161 14.1459 0.343089 13.7551C0.568018 13.3643 0.891722 13.0391 1.28193 12.812L22.6957 0.351379ZM24.9701 18.1606C26.3381 16.5381 28.4747 15.4691 31.3728 15.4691C34.0607 15.4691 36.1111 16.3903 37.4999 17.8512C37.7414 18.0956 37.9315 18.3856 38.0592 18.7042C38.1868 19.0228 38.2495 19.3637 38.2433 19.7067C38.2372 20.0498 38.1625 20.3882 38.0236 20.7021C37.8847 21.016 37.6843 21.2991 37.4343 21.5348C37.1843 21.7704 36.8896 21.9539 36.5676 22.0745C36.2455 22.1951 35.9026 22.2504 35.5589 22.2371C35.2151 22.2238 34.8775 22.1421 34.5658 21.997C34.2541 21.8518 33.9746 21.646 33.7437 21.3917C33.437 21.0789 32.8064 20.6252 31.3694 20.6252C29.8462 20.6252 29.219 21.1339 28.9261 21.4777C28.6237 21.8445 28.4484 22.2991 28.4264 22.7736C28.4264 23.0589 28.5505 23.6226 28.9261 24.0695C29.219 24.4132 29.8462 24.9219 31.3728 24.9219C31.6199 24.9235 31.8656 24.9582 32.1034 25.0251C34.2399 25.3344 35.8665 26.29 36.983 27.6134C38.2649 29.1362 38.6922 30.9374 38.6922 32.2264C38.6922 33.5155 38.2649 35.3167 36.983 36.8394C35.6149 38.4619 33.4784 39.5309 30.5802 39.5309C27.8923 39.5309 25.8419 38.6097 24.4566 37.1488C24.0028 36.649 23.7633 35.9918 23.7895 35.3179C23.8158 34.6441 24.1057 34.0074 24.597 33.5442C25.0884 33.0811 25.7421 32.8284 26.418 32.8404C27.0939 32.8524 27.7382 33.128 28.2128 33.6083C28.5126 33.9245 29.1467 34.3748 30.5802 34.3748C32.1034 34.3748 32.734 33.8661 33.0269 33.5223C33.3281 33.155 33.5022 32.7005 33.5232 32.2264C33.5012 31.752 33.3259 31.2974 33.0235 30.9305C32.734 30.5868 32.1034 30.0781 30.5802 30.0781C30.332 30.0768 30.0851 30.0421 29.8462 29.9749C27.7097 29.6656 26.0831 28.71 24.9701 27.3866C23.8854 26.0905 23.2807 24.4617 23.2574 22.7736C23.2574 21.4845 23.6847 19.6833 24.9701 18.1606Z" fill="#10AA50"/>
</svg>
