<svg width="36" height="36" viewBox="0 0 36 36" fill="none" xmlns="http://www.w3.org/2000/svg">
<g clip-path="url(#clip0_186_32)">
<path d="M27.5625 0H8.4375C3.7776 0 0 3.7776 0 8.4375V27.5625C0 32.2224 3.7776 36 8.4375 36H27.5625C32.2224 36 36 32.2224 36 27.5625V8.4375C36 3.7776 32.2224 0 27.5625 0Z" fill="#242938"/>
<path d="M16.8579 4.37571C17.5496 3.97985 18.4504 3.97802 19.1415 4.37571C22.618 6.34024 26.0956 8.30153 29.5716 10.2672C30.2255 10.6355 30.6627 11.3631 30.6561 12.1164V23.9352C30.661 24.7198 30.1805 25.4648 29.4908 25.8247C26.0256 27.7784 22.5622 29.7343 19.0976 31.688C18.3918 32.0916 17.4728 32.0605 16.7888 31.6238C15.75 31.0216 14.7094 30.4223 13.6704 29.8207C13.4581 29.6941 13.2188 29.5934 13.0689 29.3875C13.2015 29.209 13.4384 29.1867 13.6309 29.1087C14.0645 28.9707 14.4629 28.7494 14.8611 28.5347C14.9619 28.4658 15.0849 28.4922 15.1815 28.5538C16.0698 29.0631 16.9504 29.5874 17.8417 30.0918C18.0318 30.2016 18.2243 30.0558 18.3869 29.9652C21.7872 28.0433 25.1917 26.1288 28.5916 24.2064C28.7176 24.1458 28.7872 24.012 28.7769 23.8741C28.7793 19.9752 28.7775 16.0758 28.7782 12.1769C28.7926 12.0205 28.702 11.8765 28.5604 11.8124C25.1073 9.86767 21.6558 7.92016 18.2034 5.97503C18.1435 5.93394 18.0727 5.91188 18.0001 5.91175C17.9275 5.91163 17.8566 5.93344 17.7967 5.97433C14.344 7.92016 10.8934 9.86964 7.44076 11.8141C7.29971 11.8783 7.20507 12.0199 7.2218 12.1769C7.22251 16.0758 7.2218 19.9752 7.2218 23.8746C7.21577 23.942 7.23055 24.0096 7.26415 24.0683C7.29775 24.127 7.34854 24.1739 7.40968 24.2028C8.33091 24.7253 9.25341 25.244 10.1754 25.7648C10.6948 26.0442 11.3324 26.2104 11.9048 25.9962C12.4096 25.8151 12.7636 25.2997 12.754 24.7637C12.7588 20.8876 12.7516 17.011 12.7575 13.1354C12.7449 12.9634 12.9081 12.8212 13.0755 12.8375C13.5181 12.8344 13.9614 12.8315 14.4041 12.8387C14.5889 12.8344 14.716 13.0198 14.6932 13.193C14.6914 17.0937 14.698 20.9943 14.6903 24.8949C14.6914 25.9345 14.2643 27.0657 13.3027 27.5743C12.1182 28.1879 10.654 28.0578 9.48376 27.4694C8.4707 26.9637 7.50376 26.3669 6.50869 25.8252C5.8171 25.4673 5.33898 24.7194 5.3439 23.9354V12.1164C5.33659 11.3475 5.79137 10.6067 6.46538 10.2437C9.92996 8.2886 13.394 6.3318 16.8579 4.37571Z" fill="#81CD39"/>
<path d="M19.8804 12.5627C21.3915 12.4654 23.0091 12.5051 24.3688 13.2495C25.4216 13.8199 26.0052 15.0172 26.0238 16.1868C25.9944 16.3444 25.8294 16.4315 25.6788 16.4206C25.2405 16.4201 24.8019 16.4267 24.3636 16.4177C24.1775 16.4248 24.0695 16.2534 24.0462 16.089C23.9202 15.5293 23.6149 14.9751 23.0882 14.7051C22.2796 14.3004 21.3422 14.3208 20.4605 14.3293C19.8169 14.3633 19.1247 14.4191 18.5794 14.7975C18.1607 15.0843 18.0336 15.6631 18.183 16.1293C18.3239 16.4639 18.7102 16.5719 19.0264 16.6715C20.8474 17.1478 22.777 17.1003 24.5633 17.727C25.3028 17.9825 26.0262 18.4794 26.2793 19.2537C26.6105 20.2915 26.4653 21.5318 25.7269 22.3648C25.1281 23.0504 24.2561 23.4236 23.3864 23.6263C22.2293 23.8843 21.0285 23.8909 19.8534 23.7763C18.7486 23.6503 17.5987 23.36 16.7458 22.6073C16.0163 21.9739 15.6601 20.987 15.6954 20.0347C15.7039 19.8738 15.8641 19.7616 16.0182 19.7748C16.4596 19.7713 16.9012 19.77 17.3426 19.7755C17.5191 19.7629 17.6497 19.9153 17.6588 20.0815C17.7401 20.6146 17.9405 21.1743 18.4056 21.4903C19.3028 22.0693 20.4287 22.0296 21.4561 22.0458C22.3073 22.0081 23.2629 21.9967 23.9574 21.434C24.3239 21.1131 24.4325 20.5762 24.3335 20.1144C24.2262 19.7245 23.8182 19.5428 23.4679 19.424C21.6703 18.8554 19.719 19.0617 17.9388 18.4186C17.216 18.1633 16.5171 17.6803 16.2395 16.9378C15.8521 15.887 16.0296 14.587 16.8453 13.7822C17.6407 12.9814 18.7888 12.673 19.8804 12.5627Z" fill="#81CD39"/>
</g>
<defs>
<clipPath id="clip0_186_32">
<rect width="36" height="36" fill="white"/>
</clipPath>
</defs>
</svg>
