<svg width="44" height="44" viewBox="0 0 54 54" fill="none" xmlns="http://www.w3.org/2000/svg">
<g clip-path="url(#clip0_20_556)">
<path d="M9.56264 0.675049H44.4374C49.7251 0.675049 54 4.94991 54 10.2377V43.7624C54 49.0502 49.7251 53.3251 44.4374 53.3251H9.56264C4.27486 53.3251 0 49.0502 0 43.7624V10.2377C0 4.94991 4.27486 0.675049 9.56264 0.675049Z" fill="#001E36"/>
<path d="M19.35 14.0623C18.675 14.0623 18 14.0623 17.3027 14.085C16.6049 14.1074 15.9523 14.1074 15.3448 14.1302C14.7373 14.1525 14.1749 14.1525 13.6349 14.1749C13.1173 14.1973 12.7574 14.1973 12.3748 14.1973C12.2174 14.1973 12.1499 14.2871 12.1499 14.4449V37.5974C12.1499 37.7999 12.2398 37.8902 12.4199 37.8902H16.785C16.9424 37.8674 17.055 37.7324 17.0323 37.575V30.3525C17.4596 30.3525 17.7748 30.3525 18 30.3749C18.2249 30.3973 18.5848 30.3973 19.1248 30.3973C20.97 30.3973 22.6575 30.1948 24.1873 29.6324C25.6499 29.0924 26.91 28.1474 27.8099 26.8873C28.7099 25.6273 29.1599 24.0298 29.1599 22.0948C29.1599 21.0823 28.9802 20.1149 28.6427 19.1699C28.2851 18.2071 27.7248 17.3324 26.9999 16.6049C26.1443 15.7736 25.1143 15.1433 23.9848 14.7596C22.7246 14.2871 21.1949 14.0623 19.35 14.0623ZM19.8521 18.4941C20.6536 18.5092 21.4341 18.6493 22.1623 18.9446C22.8149 19.1923 23.3549 19.6424 23.7375 20.2271C24.0964 20.8323 24.2759 21.5269 24.2552 22.2302C24.2552 23.2199 24.0299 23.9852 23.5574 24.5475C23.0621 25.1099 22.4323 25.5377 21.7125 25.7402C20.8798 26.0102 20.0023 26.1448 19.1248 26.1448H17.9321C17.6621 26.1448 17.3702 26.1224 17.055 26.1V18.54C17.2124 18.5173 17.5275 18.4949 17.9777 18.5177C18.405 18.4949 18.9223 18.4949 19.5074 18.4949C19.6227 18.4921 19.7376 18.4918 19.8521 18.4941ZM38.7225 19.6428C37.1249 19.6428 35.7973 19.89 34.74 20.43C33.7727 20.8802 32.9399 21.5999 32.3775 22.4998C31.8827 23.3325 31.6123 24.2548 31.6123 25.2225C31.593 26.0185 31.7709 26.8069 32.1299 27.5175C32.5507 28.2742 33.135 28.9276 33.8402 29.4299C34.83 30.1069 35.904 30.6515 37.035 31.0499C38.1374 31.4773 38.8799 31.8148 39.2402 32.1071C39.6 32.3999 39.7802 32.6923 39.7802 33.0074C39.7802 33.4124 39.5325 33.795 39.1727 33.9524C38.7677 34.1549 38.1602 34.2675 37.305 34.2675C36.4052 34.2675 35.5049 34.1549 34.6498 33.93C33.6679 33.7107 32.7265 33.3388 31.8599 32.8277C31.7924 32.7825 31.7249 32.7602 31.6574 32.8053C31.5899 32.85 31.5675 32.9399 31.5675 33.0074V36.9224C31.5452 37.1025 31.6574 37.2599 31.8152 37.3498C32.5448 37.6906 33.3166 37.9328 34.1102 38.0699C35.1227 38.2724 36.1348 38.3623 37.1696 38.3623C38.7896 38.3623 40.14 38.115 41.2424 37.6425C42.2549 37.2375 43.1324 36.5402 43.7623 35.6399C44.3522 34.7548 44.6583 33.711 44.6398 32.6475C44.662 31.8442 44.4842 31.0479 44.1225 30.3302C43.6948 29.5649 43.0873 28.935 42.3448 28.4625C41.2585 27.7804 40.0955 27.229 38.8799 26.8198C38.337 26.5951 37.804 26.3473 37.2823 26.0773C36.9899 25.9199 36.7199 25.7174 36.5174 25.4698C36.3824 25.2896 36.2925 25.0875 36.2925 24.885C36.2925 24.6825 36.36 24.4577 36.4723 24.2775C36.63 24.0527 36.8773 23.8949 37.1696 23.8274C37.5974 23.7152 38.0699 23.6473 38.5196 23.6696C39.3748 23.6696 40.2071 23.7823 41.0399 23.9624C41.8052 24.1198 42.5249 24.3674 43.1999 24.7277C43.2898 24.7724 43.4024 24.7724 43.6049 24.7277C43.6401 24.7016 43.6686 24.6676 43.6882 24.6285C43.7077 24.5894 43.7178 24.5462 43.7175 24.5024V20.835C43.7175 20.7448 43.6948 20.6549 43.6724 20.565C43.6273 20.4752 43.5374 20.3849 43.4475 20.3625C42.827 20.1089 42.1767 19.935 41.5124 19.8449C40.5885 19.7104 39.6562 19.6431 38.7225 19.6428Z" fill="#31A8FF"/>
</g>
<defs>
<clipPath id="clip0_20_556">
<rect width="54" height="54" fill="white"/>
</clipPath>
</defs>
</svg>
