<svg width="36" height="36" viewBox="0 0 36 36" fill="none" xmlns="http://www.w3.org/2000/svg">
<g clip-path="url(#clip0_186_73)">
<path d="M27.5625 0H8.4375C3.7776 0 0 3.7776 0 8.4375V27.5625C0 32.2224 3.7776 36 8.4375 36H27.5625C32.2224 36 36 32.2224 36 27.5625V8.4375C36 3.7776 32.2224 0 27.5625 0Z" fill="#001E36"/>
<path d="M8.09998 25.0369V9.60188C8.09998 9.49683 8.14498 9.43692 8.25002 9.43692C8.50498 9.43692 8.74502 9.43692 9.08998 9.42188C9.44998 9.40683 9.82502 9.40683 10.23 9.39192C10.635 9.37688 11.07 9.37688 11.535 9.36183C11.9999 9.34692 12.4499 9.34692 12.8999 9.34692C14.13 9.34692 15.1499 9.49683 15.99 9.81183C16.743 10.0676 17.4296 10.4878 18 11.0419C18.4832 11.5269 18.8567 12.11 19.095 12.7519C19.32 13.3819 19.44 14.0269 19.44 14.7019C19.44 15.9919 19.14 17.0569 18.54 17.8969C17.9399 18.7369 17.1 19.3669 16.125 19.7269C15.1049 20.1019 13.9799 20.2369 12.75 20.2369C12.39 20.2369 12.15 20.2369 11.9999 20.2219C11.8499 20.2068 11.6399 20.2068 11.355 20.2068V25.0218C11.3699 25.1269 11.295 25.2169 11.1899 25.2319H8.27998C8.16002 25.2319 8.09998 25.1719 8.09998 25.0369ZM11.3699 12.3318V17.3718C11.58 17.3869 11.7749 17.4019 11.9549 17.4019H12.75C13.335 17.4019 13.92 17.3119 14.4749 17.1319C14.955 16.9969 15.3749 16.7119 15.705 16.3368C16.02 15.9619 16.17 15.4519 16.17 14.7919C16.1841 14.3232 16.0644 13.8601 15.8249 13.4568C15.57 13.0669 15.21 12.7669 14.775 12.6018C14.22 12.3768 13.6199 12.2868 13.005 12.3019C12.615 12.3019 12.2699 12.3019 11.985 12.3169C11.6849 12.3019 11.475 12.3169 11.3699 12.3318ZM28.8 16.4569C28.35 16.2169 27.87 16.0519 27.36 15.9469C26.8049 15.8269 26.25 15.7518 25.6799 15.7518C25.38 15.7369 25.065 15.7819 24.7799 15.8569C24.585 15.9019 24.4199 16.0069 24.315 16.1568C24.2399 16.2769 24.1949 16.4268 24.1949 16.5618C24.1949 16.6968 24.255 16.8318 24.345 16.9519C24.48 17.1169 24.66 17.2519 24.855 17.3569C25.2028 17.537 25.5581 17.7021 25.92 17.8519C26.73 18.1219 27.51 18.4968 28.23 18.9468C28.725 19.2618 29.13 19.6819 29.4149 20.1919C29.655 20.6719 29.7749 21.1968 29.76 21.7368C29.7749 22.4419 29.565 23.1469 29.175 23.7319C28.7566 24.3307 28.1728 24.7945 27.495 25.0668C26.7599 25.3818 25.8599 25.5469 24.7799 25.5469C24.09 25.5469 23.415 25.4869 22.74 25.3519C22.211 25.2605 21.6965 25.0991 21.21 24.8719C21.105 24.8119 21.03 24.7068 21.0449 24.5869V21.9769C21.0449 21.9319 21.06 21.8718 21.105 21.8419C21.15 21.8119 21.195 21.8268 21.24 21.8569C21.825 22.2019 22.4399 22.4419 23.1 22.5918C23.67 22.7419 24.27 22.8168 24.8699 22.8168C25.44 22.8168 25.845 22.7419 26.115 22.6069C26.3549 22.5018 26.52 22.2469 26.52 21.9769C26.52 21.7669 26.3999 21.5719 26.16 21.3768C25.92 21.1819 25.425 20.9569 24.6899 20.6719C23.936 20.4061 23.22 20.0431 22.56 19.5919C22.0899 19.2569 21.7005 18.8213 21.42 18.3168C21.1799 17.8369 21.06 17.3119 21.075 16.7868C21.075 16.1419 21.255 15.5268 21.5849 14.9719C21.96 14.3719 22.515 13.8919 23.1599 13.5918C23.865 13.2318 24.75 13.0669 25.8149 13.0669C26.43 13.0669 27.06 13.1119 27.675 13.2019C28.125 13.2619 28.5599 13.3819 28.9649 13.5468C29.025 13.5619 29.085 13.6219 29.115 13.6818C29.13 13.7419 29.1449 13.8019 29.1449 13.8618V16.3069C29.1449 16.3669 29.115 16.4268 29.07 16.4569C28.935 16.4869 28.86 16.4869 28.8 16.4569Z" fill="#31A8FF"/>
</g>
<defs>
<clipPath id="clip0_186_73">
<rect width="36" height="36" fill="white"/>
</clipPath>
</defs>
</svg>
