<svg width="42" height="42" viewBox="0 0 52 52" fill="none" xmlns="http://www.w3.org/2000/svg">
<g clip-path="url(#clip0_86_50)">
<path d="M39.8125 0H12.1875C5.45653 0 0 5.45653 0 12.1875V39.8125C0 46.5435 5.45653 52 12.1875 52H39.8125C46.5435 52 52 46.5435 52 39.8125V12.1875C52 5.45653 46.5435 0 39.8125 0Z" fill="#F4F2ED"/>
<path d="M9.98522 20.3625H15.7556C17.4493 20.3768 18.6765 20.8649 19.4374 21.8266C20.1982 22.7882 20.4494 24.1016 20.191 25.7668C20.0906 26.5276 19.8681 27.274 19.5236 28.0061C19.1934 28.7381 18.7341 29.3984 18.1456 29.9869C17.4279 30.7332 16.6599 31.2069 15.8417 31.408C15.0234 31.609 14.1765 31.7094 13.301 31.7094H10.7173L9.89909 35.8004H6.90625L9.98522 20.3625ZM12.5044 22.817L11.2125 29.2764C11.2986 29.2908 11.3848 29.2979 11.4709 29.2979H11.7723C13.1504 29.3123 14.2988 29.1759 15.2173 28.8888C16.136 28.5874 16.7532 27.5396 17.069 25.7453C17.3274 24.2381 17.069 23.3697 16.2939 23.14C15.5331 22.9105 14.5786 22.8028 13.4302 22.817C13.2581 22.8314 13.093 22.8386 12.935 22.8386H12.4828L12.5044 22.817ZM23.6003 16.25H26.5716L25.7319 20.3625H28.4018C29.8657 20.3913 30.9567 20.6927 31.6745 21.2668C32.4066 21.8409 32.6219 22.9319 32.3204 24.5395L30.8778 31.7094H27.8635L29.2415 24.8625C29.3849 24.1448 29.3418 23.6352 29.1123 23.3338C28.8828 23.0323 28.3875 22.8816 27.6266 22.8816L25.2367 22.8601L23.4711 31.7094H20.4998L23.6003 16.25ZM35.5111 20.3625H41.2815C42.9752 20.3768 44.2024 20.8649 44.9633 21.8266C45.7241 22.7882 45.9753 24.1016 45.7169 25.7668C45.6165 26.5276 45.394 27.274 45.0495 28.0061C44.7193 28.7381 44.26 29.3984 43.6715 29.9869C42.9538 30.7332 42.1858 31.2069 41.3676 31.408C40.5493 31.609 39.7024 31.7094 38.8269 31.7094H36.2432L35.425 35.8004H32.4322L35.5111 20.3625ZM38.0303 22.817L36.7384 29.2764C36.8245 29.2908 36.9107 29.2979 36.9968 29.2979H37.2982C38.6764 29.3123 39.8247 29.1759 40.7432 28.8888C41.6619 28.5874 42.2791 27.5396 42.5949 25.7453C42.8533 24.2381 42.5949 23.3697 41.8198 23.14C41.059 22.9105 40.1045 22.8028 38.9561 22.817C38.7839 22.8314 38.6188 22.8386 38.4609 22.8386H38.0088L38.0303 22.817Z" fill="black"/>
</g>
<defs>
<clipPath id="clip0_86_50">
<rect width="52" height="52" fill="white"/>
</clipPath>
</defs>
</svg>

