<svg width="36" height="36" viewBox="0 0 36 36" fill="none" xmlns="http://www.w3.org/2000/svg">
<g clip-path="url(#clip0_186_17)">
<path d="M27.5625 0H8.4375C3.7776 0 0 3.7776 0 8.4375V27.5625C0 32.2224 3.7776 36 8.4375 36H27.5625C32.2224 36 36 32.2224 36 27.5625V8.4375C36 3.7776 32.2224 0 27.5625 0Z" fill="#242938"/>
<path d="M6.91284 14.0971H10.9077C12.0803 14.107 12.9299 14.4449 13.4567 15.1107C13.9834 15.7764 14.1573 16.6857 13.9784 17.8386C13.9088 18.3652 13.7548 18.882 13.5163 19.3888C13.2877 19.8956 12.9698 20.3528 12.5623 20.7602C12.0654 21.2768 11.5338 21.6048 10.9673 21.744C10.4008 21.8831 9.8145 21.9527 9.20841 21.9527H7.41966L6.85322 24.7849H4.78125L6.91284 14.0971ZM8.65688 15.7964L7.7625 20.2683C7.82213 20.2782 7.88175 20.2832 7.94138 20.2832H8.15006C9.10416 20.2931 9.89916 20.1987 10.5351 20C11.1711 19.7913 11.5984 19.0658 11.817 17.8237C11.9959 16.7802 11.817 16.179 11.2804 16.02C10.7537 15.8611 10.0928 15.7866 9.29784 15.7964C9.17869 15.8063 9.06441 15.8113 8.955 15.8113H8.64197L8.65688 15.7964ZM16.3387 11.25H18.3957L17.8144 14.0971H19.6628C20.6763 14.1171 21.4315 14.3257 21.9285 14.7232C22.4353 15.1207 22.5844 15.8759 22.3757 16.9889L21.377 21.9527H19.2901L20.2441 17.2125C20.3434 16.7156 20.3136 16.3628 20.1547 16.1542C19.9958 15.9455 19.6529 15.8411 19.1261 15.8411L17.4715 15.8262L16.2492 21.9527H14.1922L16.3387 11.25ZM24.5846 14.0971H28.5795C29.752 14.107 30.6017 14.4449 31.1285 15.1107C31.6552 15.7764 31.8291 16.6857 31.6502 17.8386C31.5806 18.3652 31.4266 18.882 31.1881 19.3888C30.9595 19.8956 30.6415 20.3528 30.2341 20.7602C29.7372 21.2768 29.2056 21.6048 28.6391 21.744C28.0726 21.8831 27.4863 21.9527 26.8802 21.9527H25.0914L24.525 24.7849H22.453L24.5846 14.0971ZM26.3287 15.7964L25.4343 20.2683C25.4939 20.2782 25.5535 20.2832 25.6132 20.2832H25.8218C26.7759 20.2931 27.5709 20.1987 28.2068 20C28.8428 19.7913 29.2702 19.0658 29.4888 17.8237C29.6677 16.7802 29.4888 16.179 28.9522 16.02C28.4255 15.8611 27.7646 15.7866 26.9696 15.7964C26.8504 15.8063 26.7361 15.8113 26.6268 15.8113H26.3137L26.3287 15.7964Z" fill="white"/>
</g>
<defs>
<clipPath id="clip0_186_17">
<rect width="36" height="36" fill="white"/>
</clipPath>
</defs>
</svg>
