<svg width="54" height="54" viewBox="0 0 64 64" fill="none" xmlns="http://www.w3.org/2000/svg">
<path d="M32 24C46.888 24 56 29.18 56 32C56 34.82 46.888 40 32 40C17.112 40 8 34.82 8 32C8 29.18 17.112 24 32 24ZM32 20C16.536 20 4 25.372 4 32C4 38.628 16.536 44 32 44C47.464 44 60 38.628 60 32C60 25.372 47.464 20 32 20Z" fill="#00BCD4"/>
<path d="M32 28C31.2089 28 30.4355 28.2346 29.7777 28.6741C29.1199 29.1136 28.6072 29.7384 28.3045 30.4693C28.0017 31.2002 27.9225 32.0044 28.0769 32.7804C28.2312 33.5563 28.6122 34.269 29.1716 34.8284C29.731 35.3878 30.4437 35.7688 31.2196 35.9231C31.9956 36.0775 32.7998 35.9983 33.5307 35.6955C34.2616 35.3928 34.8864 34.8801 35.3259 34.2223C35.7654 33.5645 36 32.7911 36 32C36 30.9391 35.5786 29.9217 34.8284 29.1716C34.0783 28.4214 33.0609 28 32 28Z" fill="#00BCD4"/>
<path d="M20.9158 11.0139C24.9498 11.0139 32.7898 17.3679 38.9278 27.9999C46.3718 40.8939 46.4418 51.3739 43.9998 52.7839C43.7181 52.93 43.4028 52.999 43.0858 52.9839C39.0518 52.9839 31.2098 46.6319 25.0718 35.9999C17.6278 23.1059 17.5578 12.6259 19.9998 11.2159C20.2821 11.0695 20.5981 10.9985 20.9158 11.0139ZM20.9138 7.01592C19.8945 6.99747 18.8887 7.25082 17.9998 7.74992C12.2598 11.0639 13.8758 24.6079 21.6078 37.9999C28.1758 49.3799 37.0478 56.9859 43.0878 56.9859C44.1068 57.0028 45.1118 56.7481 45.9998 56.2479C51.7398 52.9359 50.1238 39.3919 42.3918 25.9999C35.8238 14.6199 26.9518 7.01392 20.9118 7.01392L20.9138 7.01592Z" fill="#00BCD4"/>
<path d="M43.0858 11.014C43.4028 10.9989 43.7181 11.0679 43.9998 11.214C46.4418 12.626 46.3718 23.106 38.9278 36C32.7878 46.632 24.9478 52.986 20.9138 52.986C20.5968 53.0011 20.2815 52.9321 19.9998 52.786C17.5578 51.372 17.6278 40.892 25.0718 28C31.2118 17.368 39.0518 11.014 43.0858 11.014ZM43.0858 7.014C37.0458 7.014 28.1758 14.622 21.6058 26C13.8778 39.392 12.2598 52.936 17.9998 56.248C18.8883 56.7485 19.8942 57.0032 20.9138 56.986C26.9538 56.986 35.8238 49.378 42.3938 38C50.1218 24.608 51.7398 11.064 45.9998 7.752C45.1113 7.25151 44.1055 6.99678 43.0858 7.014Z" fill="#00BCD4"/>
</svg>
