<svg width="36" height="36" viewBox="0 0 36 36" fill="none" xmlns="http://www.w3.org/2000/svg">
<g clip-path="url(#clip0_186_25)">
<path d="M27.5625 0H8.4375C3.7776 0 0 3.7776 0 8.4375V27.5625C0 32.2224 3.7776 36 8.4375 36H27.5625C32.2224 36 36 32.2224 36 27.5625V8.4375C36 3.7776 32.2224 0 27.5625 0Z" fill="#242938"/>
<path d="M18.0001 20.665C19.4491 20.665 20.6236 19.4903 20.6236 18.0415C20.6236 16.5926 19.4491 15.418 18.0001 15.418C16.5511 15.418 15.3766 16.5926 15.3766 18.0415C15.3766 19.4903 16.5513 20.665 18.0001 20.665Z" fill="#00D8FF"/>
<path d="M18.0003 12.7073C21.5227 12.7073 24.7949 13.2127 27.2621 14.0622C30.2348 15.0855 32.0625 16.6368 32.0625 18.0415C32.0625 19.5052 30.1255 21.1532 26.9332 22.2109C24.5198 23.0104 21.3439 23.4278 18.0003 23.4278C14.5721 23.4278 11.3258 23.036 8.88511 22.202C5.79727 21.1466 3.9375 19.4774 3.9375 18.0415C3.9375 16.6482 5.68266 15.1089 8.61356 14.0871C11.09 13.2237 14.4429 12.7073 17.9997 12.7073H18.0003Z" stroke="#00D8FF" stroke-width="0.556938"/>
<path d="M13.3567 15.3897C15.1165 12.3384 17.1889 9.75628 19.1574 8.04347C21.5289 5.97951 23.7859 5.1712 25.0026 5.87278C26.2706 6.60403 26.7306 9.10547 26.0521 12.3992C25.5395 14.8892 24.3141 17.8488 22.6436 20.7454C20.9309 23.7151 18.9699 26.3316 17.0283 28.0287C14.5714 30.1763 12.1962 30.9535 10.9523 30.2362C9.74534 29.5407 9.28381 27.2596 9.8629 24.2101C10.3521 21.6335 11.5799 18.471 13.3562 15.3897H13.3567Z" stroke="#00D8FF" stroke-width="0.556938"/>
<path d="M13.361 20.7532C11.5963 17.7053 10.3948 14.6197 9.89336 12.0589C9.28966 8.97344 9.71646 6.61446 10.9322 5.91077C12.1991 5.17727 14.5957 6.02805 17.1104 8.26089C19.0116 9.94896 20.9639 12.4882 22.6392 15.382C24.3568 18.3489 25.6441 21.3548 26.1448 23.8843C26.7785 27.0855 26.2656 29.5314 25.0229 30.2507C23.8172 30.9488 21.6107 30.2098 19.2579 28.1851C17.27 26.4745 15.1432 23.8315 13.361 20.7532Z" stroke="#00D8FF" stroke-width="0.556938"/>
</g>
<defs>
<clipPath id="clip0_186_25">
<rect width="36" height="36" fill="white"/>
</clipPath>
</defs>
</svg>
