<svg width="44" height="44" viewBox="0 0 44 44" fill="none" xmlns="http://www.w3.org/2000/svg">
<path d="M34.8333 23.8333V33C34.8333 34.0083 34.0083 34.8333 33 34.8333H11C9.99167 34.8333 9.16667 34.0083 9.16667 33V23.8333C9.16667 22.825 8.34167 22 7.33333 22C6.325 22 5.5 22.825 5.5 23.8333V34.8333C5.5 36.85 7.15 38.5 9.16667 38.5H34.8333C36.85 38.5 38.5 36.85 38.5 34.8333V23.8333C38.5 22.825 37.675 22 36.6667 22C35.6583 22 34.8333 22.825 34.8333 23.8333ZM23.8333 23.2283L27.28 19.7817C27.4497 19.6119 27.6512 19.4773 27.873 19.3854C28.0948 19.2936 28.3325 19.2463 28.5725 19.2463C28.8125 19.2463 29.0502 19.2936 29.272 19.3854C29.4938 19.4773 29.6953 19.6119 29.865 19.7817C30.0347 19.9514 30.1694 20.1529 30.2612 20.3747C30.3531 20.5964 30.4004 20.8341 30.4004 21.0742C30.4004 21.3142 30.3531 21.5519 30.2612 21.7737C30.1694 21.9954 30.0347 22.1969 29.865 22.3667L23.2833 28.9483C23.1137 29.1183 22.9123 29.2531 22.6905 29.3451C22.4687 29.4371 22.2309 29.4845 21.9908 29.4845C21.7507 29.4845 21.513 29.4371 21.2912 29.3451C21.0694 29.2531 20.8679 29.1183 20.6983 28.9483L14.1167 22.3667C13.7739 22.0239 13.5813 21.5589 13.5813 21.0742C13.5813 20.5894 13.7739 20.1245 14.1167 19.7817C14.4595 19.4389 14.9244 19.2463 15.4092 19.2463C15.8939 19.2463 16.3589 19.4389 16.7017 19.7817L20.1667 23.2283V7.33333C20.1667 6.325 20.9917 5.5 22 5.5C23.0083 5.5 23.8333 6.325 23.8333 7.33333V23.2283Z" fill="white"/>
</svg>
