<svg width="44" height="44" viewBox="0 0 44 44" fill="none" xmlns="http://www.w3.org/2000/svg">
<path d="M29.9934 25.6666C30.1401 24.4566 30.2501 23.2466 30.2501 22C30.2501 20.7533 30.1401 19.5433 29.9934 18.3333H36.1901C36.4834 19.5066 36.6667 20.735 36.6667 22C36.6667 23.265 36.4834 24.4933 36.1901 25.6666M26.7484 35.86C27.8484 33.825 28.6917 31.625 29.2784 29.3333H34.6867C32.9106 32.3918 30.0926 34.7086 26.7484 35.86ZM26.2901 25.6666H17.7101C17.5267 24.4566 17.4167 23.2466 17.4167 22C17.4167 20.7533 17.5267 19.525 17.7101 18.3333H26.2901C26.4551 19.525 26.5834 20.7533 26.5834 22C26.5834 23.2466 26.4551 24.4566 26.2901 25.6666ZM22.0001 36.5933C20.4784 34.3933 19.2501 31.955 18.4984 29.3333H25.5017C24.7501 31.955 23.5217 34.3933 22.0001 36.5933ZM14.6667 14.6666H9.31341C11.0709 11.5995 13.887 9.2789 17.2334 8.13996C16.1334 10.175 15.3084 12.375 14.6667 14.6666ZM9.31341 29.3333H14.6667C15.3084 31.625 16.1334 33.825 17.2334 35.86C13.8936 34.7092 11.0813 32.3916 9.31341 29.3333ZM7.81008 25.6666C7.51675 24.4933 7.33341 23.265 7.33341 22C7.33341 20.735 7.51675 19.5066 7.81008 18.3333H14.0067C13.8601 19.5433 13.7501 20.7533 13.7501 22C13.7501 23.2466 13.8601 24.4566 14.0067 25.6666M22.0001 7.38829C23.5217 9.58829 24.7501 12.045 25.5017 14.6666H18.4984C19.2501 12.045 20.4784 9.58829 22.0001 7.38829ZM34.6867 14.6666H29.2784C28.7037 12.3962 27.8541 10.2045 26.7484 8.13996C30.1217 9.29496 32.9267 11.6233 34.6867 14.6666ZM22.0001 3.66663C11.8617 3.66663 3.66675 11.9166 3.66675 22C3.66675 26.8623 5.59829 31.5254 9.03646 34.9636C10.7389 36.666 12.7599 38.0164 14.9842 38.9378C17.2085 39.8591 19.5925 40.3333 22.0001 40.3333C26.8624 40.3333 31.5255 38.4018 34.9637 34.9636C38.4019 31.5254 40.3334 26.8623 40.3334 22C40.3334 19.5924 39.8592 17.2084 38.9379 14.9841C38.0165 12.7598 36.6661 10.7387 34.9637 9.03634C33.2613 7.33393 31.2402 5.9835 29.0159 5.06217C26.7916 4.14083 24.4076 3.66663 22.0001 3.66663Z" fill="white"/>
</svg>
