<svg width="36" height="36" viewBox="0 0 36 36" fill="none" xmlns="http://www.w3.org/2000/svg">
<g clip-path="url(#clip0_186_81)">
<path d="M27.5625 0H8.4375C3.7776 0 0 3.7776 0 8.4375V27.5625C0 32.2224 3.7776 36 8.4375 36H27.5625C32.2224 36 36 32.2224 36 27.5625V8.4375C36 3.7776 32.2224 0 27.5625 0Z" fill="#242938"/>
<path fill-rule="evenodd" clip-rule="evenodd" d="M11.6719 15.4688C12.5156 12.0938 14.625 10.4062 18 10.4062C23.0625 10.4062 23.6953 14.2031 26.2266 14.8359C27.9141 15.258 29.3906 14.6252 30.6562 12.9375C29.8125 16.3125 27.7031 18 24.3281 18C19.2656 18 18.6328 14.2031 16.1016 13.5703C14.4141 13.1484 12.9375 13.7812 11.6719 15.4688ZM5.34375 23.0625C6.1875 19.6875 8.29688 18 11.6719 18C16.7344 18 17.3672 21.7969 19.8984 22.4297C21.5859 22.8517 23.0625 22.2189 24.3281 20.5312C23.4844 23.9062 21.375 25.5938 18 25.5938C12.9375 25.5938 12.3047 21.7969 9.77344 21.1641C8.08594 20.742 6.60938 21.3748 5.34375 23.0625Z" fill="url(#paint0_linear_186_81)"/>
</g>
<defs>
<linearGradient id="paint0_linear_186_81" x1="12.1641" y1="10.4062" x2="22.9922" y2="26.0859" gradientUnits="userSpaceOnUse">
<stop stop-color="#32B1C1"/>
<stop offset="1" stop-color="#14C6B7"/>
</linearGradient>
<clipPath id="clip0_186_81">
<rect width="36" height="36" fill="white"/>
</clipPath>
</defs>
</svg>
