<svg width="42" height="52" viewBox="0 0 52 52" fill="none" xmlns="http://www.w3.org/2000/svg">
<g clip-path="url(#clip0_20_528)">
<path d="M26.0015 10.4009C19.068 10.4009 14.7362 13.8662 13.0015 20.7997C15.6007 17.3339 18.6349 16.0343 22.1007 16.9009C24.0795 17.3941 25.4937 18.8289 27.0597 20.419C29.6086 23.0056 32.5587 26.0001 39.0015 26.0001C45.9345 26.0001 50.2668 22.5343 52.0015 15.5993C49.4015 19.0667 46.3683 20.367 42.9019 19.5001C40.9234 19.0065 39.5109 17.572 37.9428 15.9819C35.3956 13.3953 32.4462 10.4009 26.0015 10.4009ZM13.0015 26.0001C6.0684 26.0001 1.73615 29.4658 0.00146484 36.4009C2.60119 32.9334 5.63426 31.6331 9.10065 32.5001C11.0795 32.9937 12.4937 34.4281 14.0597 36.0182C16.6086 38.6048 19.5587 41.5993 26.0015 41.5993C32.9345 41.5993 37.2668 38.1339 39.0015 31.2005C36.4015 34.6663 33.3683 35.9659 29.9019 35.0993C27.9234 34.6061 26.5109 33.1712 24.9428 31.5811C22.3956 28.9945 19.4462 26.0001 13.0015 26.0001Z" fill="#38BDF8"/>
</g>
<defs>
<clipPath id="clip0_20_528">
<rect width="52" height="52" fill="white"/>
</clipPath>
</defs>
</svg>
