<svg width="44" height="44" viewBox="0 0 44 44" fill="none" xmlns="http://www.w3.org/2000/svg">
<path d="M22.0733 3.66672C12.0633 3.66672 3.90497 11.8251 3.90497 21.8351C3.90497 25.0434 4.7483 28.1601 6.32497 30.9101L3.7583 40.3334L13.3833 37.8034C16.0416 39.2517 19.03 40.0217 22.0733 40.0217C32.0833 40.0217 40.2416 31.8634 40.2416 21.8534C40.2416 16.9951 38.3533 12.4301 34.925 9.00172C33.2439 7.30425 31.2418 5.95833 29.0354 5.04239C26.829 4.12645 24.4623 3.65881 22.0733 3.66672ZM22.0916 6.72839C26.125 6.72839 29.9016 8.30506 32.7616 11.1651C34.1648 12.5685 35.2774 14.235 36.0356 16.0691C36.7937 17.9032 37.1826 19.8688 37.18 21.8534C37.18 30.1767 30.3966 36.9417 22.0733 36.9417C19.36 36.9417 16.7016 36.2267 14.3916 34.8334L13.8416 34.5217L8.12163 36.0251L9.6433 30.4517L9.27663 29.8651C7.7633 27.4605 6.96236 24.6762 6.96663 21.8351C6.98497 13.5117 13.75 6.72839 22.0916 6.72839ZM15.6383 13.4384C15.345 13.4384 14.85 13.5484 14.4283 14.0067C14.025 14.4651 12.8333 15.5834 12.8333 17.8017C12.8333 20.0384 14.465 22.1834 14.6666 22.4951C14.9233 22.8067 17.8933 27.3901 22.4583 29.3334C23.54 29.8284 24.3833 30.1034 25.0433 30.3051C26.125 30.6534 27.115 30.5984 27.9033 30.4884C28.7833 30.3601 30.58 29.3884 30.965 28.3251C31.35 27.2617 31.35 26.3634 31.24 26.1617C31.1116 25.9784 30.8183 25.8684 30.36 25.6667C29.9016 25.4101 27.665 24.3101 27.2616 24.1634C26.84 24.0167 26.5833 23.9434 26.235 24.3834C25.9416 24.8417 25.0616 25.8684 24.805 26.1617C24.53 26.4734 24.2733 26.5101 23.8333 26.2901C23.3566 26.0517 21.89 25.5751 20.1666 24.0351C18.81 22.8251 17.9116 21.3401 17.6366 20.8817C17.4166 20.4417 17.6183 20.1667 17.8383 19.9651C18.04 19.7634 18.3333 19.4334 18.5166 19.1584C18.755 18.9017 18.8283 18.7001 18.975 18.4067C19.1216 18.0951 19.0483 17.8384 18.9383 17.6184C18.8283 17.4167 17.9116 15.1434 17.5266 14.2451C17.16 13.3651 16.7933 13.4751 16.5 13.4567C16.2433 13.4567 15.95 13.4384 15.6383 13.4384Z" fill="white"/>
</svg>
